<?xml version="1.0" encoding="UTF-8" standalone="no"?>
<svg
   xmlns:dc="http://purl.org/dc/elements/1.1/"
   xmlns:cc="http://creativecommons.org/ns#"
   xmlns:rdf="http://www.w3.org/1999/02/22-rdf-syntax-ns#"
   xmlns:svg="http://www.w3.org/2000/svg"
   xmlns="http://www.w3.org/2000/svg"
   xmlns:sodipodi="http://sodipodi.sourceforge.net/DTD/sodipodi-0.dtd"
   xmlns:inkscape="http://www.inkscape.org/namespaces/inkscape"
   width="1110.8677mm"
   height="392.78656mm"
   viewBox="0 0 1110.8677 392.78656"
   version="1.1"
   id="svg866"
   inkscape:export-filename="D:\images\random\pilly.png"
   inkscape:export-xdpi="101"
   inkscape:export-ydpi="101"
   inkscape:version="1.0 (4035a4fb49, 2020-05-01)"
   sodipodi:docname="GUI.svg">
  <defs
     id="defs860" />
  <sodipodi:namedview
     id="base"
     pagecolor="#ffffff"
     bordercolor="#666666"
     borderopacity="1.0"
     inkscape:pageopacity="0.0"
     inkscape:pageshadow="2"
     inkscape:zoom="0.33006608"
     inkscape:cx="2733.1383"
     inkscape:cy="532.12208"
     inkscape:document-units="mm"
     inkscape:current-layer="layer1"
     inkscape:document-rotation="0"
     showgrid="false"
     showguides="true"
     inkscape:guide-bbox="true"
     inkscape:snap-bbox="true"
     inkscape:bbox-paths="true"
     inkscape:bbox-nodes="true"
     inkscape:snap-bbox-edge-midpoints="true"
     inkscape:snap-bbox-midpoints="true"
     inkscape:object-paths="true"
     inkscape:snap-intersection-paths="true"
     inkscape:snap-smooth-nodes="true"
     inkscape:snap-midpoints="true"
     inkscape:snap-object-midpoints="true"
     inkscape:snap-center="true"
     inkscape:snap-text-baseline="true"
     inkscape:snap-page="true"
     inkscape:snap-global="false"
     inkscape:window-width="1920"
     inkscape:window-height="1027"
     inkscape:window-x="-8"
     inkscape:window-y="-8"
     inkscape:window-maximized="1" />
  <metadata
     id="metadata863">
    <rdf:RDF>
      <cc:Work
         rdf:about="">
        <dc:format>image/svg+xml</dc:format>
        <dc:type
           rdf:resource="http://purl.org/dc/dcmitype/StillImage" />
        <dc:title />
      </cc:Work>
    </rdf:RDF>
  </metadata>
  <g
     transform="translate(46.492091,48.08839)"
     inkscape:label="Layer 1"
     inkscape:groupmode="layer"
     id="layer1">
    <rect
       ry="21.53923"
       style="fill:#ffffff;fill-opacity:1;stroke:#008080;stroke-width:1;stroke-linecap:round;stroke-linejoin:round;stroke-opacity:1"
       id="rect1558"
       width="210"
       height="297"
       x="0"
       y="0" />
    <rect
       style="fill:#008080;fill-opacity:1;stroke:none;stroke-width:0.972678;stroke-linecap:round;stroke-linejoin:round;stroke-opacity:1"
       id="rect1508"
       width="155.22516"
       height="25.595638"
       x="26.834135"
       y="66.053261"
       ry="5.1419806" />
    <g
       id="g1454"
       transform="matrix(0.53559425,0,0,0.53559425,116.6043,-15.839812)">
      <path
         style="fill:#008080;fill-opacity:1;stroke:#ffffff;stroke-width:2.64599;stroke-linecap:butt;stroke-linejoin:miter;stroke-miterlimit:4;stroke-dasharray:none;stroke-opacity:1"
         d="m 81.011461,84.125327 24.803829,24.803823 9.56954,-9.569543 c 13.40176,-12.3231 9.19732,-20.013 2.15126,-26.9551 -11.42652,-11.88377 -19.236647,-6.30872 -27.139418,1.96694"
         id="path1015-5"
         inkscape:connector-curvature="0"
         sodipodi:nodetypes="ccccc" />
      <path
         sodipodi:nodetypes="ccccc"
         inkscape:connector-curvature="0"
         id="path1017-7"
         d="m 105.81529,108.92915 -24.803829,-24.803823 -9.569539,9.56954 c -13.401759,12.323103 -9.19732,20.013003 -2.151259,26.955103 11.426518,11.88377 19.236648,6.30872 27.139419,-1.96694"
         style="fill:#bdf4ee;fill-opacity:1;stroke:#ffffff;stroke-width:2.64583;stroke-linecap:butt;stroke-linejoin:miter;stroke-miterlimit:4;stroke-dasharray:none;stroke-opacity:1" />
      <path
         style="fill:#ffffff;fill-opacity:1;stroke:#ffffff;stroke-width:2.5831;stroke-linecap:round;stroke-linejoin:miter;stroke-miterlimit:4;stroke-dasharray:none;stroke-opacity:1"
         d="m 96.85418,79.382017 4.44336,-4.44336"
         id="path1019-1"
         inkscape:connector-curvature="0" />
      <path
         style="fill:none;stroke:#ffffff;stroke-width:2.64583;stroke-linecap:butt;stroke-linejoin:miter;stroke-miterlimit:4;stroke-dasharray:none;stroke-opacity:1"
         d="m 90.396672,74.371447 -9.385211,9.75388"
         id="path1021-1"
         inkscape:connector-curvature="0" />
      <path
         style="fill:none;stroke:#ffffff;stroke-width:2.64583;stroke-linecap:butt;stroke-linejoin:miter;stroke-miterlimit:4;stroke-dasharray:none;stroke-opacity:1"
         d="m 105.81529,108.92915 -9.385197,9.75387"
         id="path1023-6"
         inkscape:connector-curvature="0" />
      <path
         style="fill:none;stroke:#ffffff;stroke-width:2.64583;stroke-linecap:round;stroke-linejoin:miter;stroke-miterlimit:4;stroke-dasharray:none;stroke-opacity:1"
         d="m 89.027041,116.00456 c -6.50905,6.16984 -7.71218,5.53459 -13.994309,0.16269"
         id="path1025-8"
         inkscape:connector-curvature="0"
         sodipodi:nodetypes="cc" />
      <path
         style="fill:#ffffff;fill-opacity:1;stroke:#ffffff;stroke-width:2.5831;stroke-linecap:round;stroke-linejoin:miter;stroke-miterlimit:4;stroke-dasharray:none;stroke-opacity:1"
         d="m 101.01582,104.23286 4.44336,-4.443364"
         id="path1019-1-9"
         inkscape:connector-curvature="0" />
    </g>
    <g
       id="g1470"
       transform="matrix(0.68692679,0,0,0.68692679,-58.734354,-102.24109)"
       style="fill:#008080;fill-opacity:1">
      <path
         style="fill:#008080;fill-opacity:1;stroke-width:0.264583"
         d="m 145.3341,227.62886 c -2.55697,-0.82115 -3.6412,-2.32824 -3.96037,-5.50495 -0.1533,-1.52583 -0.39696,-2.54123 -0.7116,-2.96545 -1.43246,-1.93135 -3.16445,-2.18569 -5.79604,-0.85113 -1.93291,0.98023 -3.60548,1.08672 -5.23307,0.33317 -1.38421,-0.64087 -2.18326,-1.54394 -3.70547,-4.18789 -1.37443,-2.38726 -1.68356,-3.79378 -1.21568,-5.53132 0.38905,-1.44484 1.1418,-2.35303 2.8628,-3.45394 1.69606,-1.08495 2.45325,-2.2132 2.45325,-3.65545 0,-1.44224 -0.75719,-2.57049 -2.45325,-3.65544 -1.721,-1.10091 -2.47375,-2.0091 -2.8628,-3.45394 -0.46788,-1.73754 -0.15875,-3.14406 1.21568,-5.53132 1.52221,-2.64395 2.32126,-3.54702 3.70547,-4.18789 1.62759,-0.75355 3.30016,-0.64706 5.23307,0.33317 2.63159,1.33456 4.36358,1.08022 5.79604,-0.85113 0.31464,-0.42422 0.5583,-1.43962 0.7116,-2.96545 0.27318,-2.71895 0.95073,-3.94524 2.74887,-4.97517 1.02867,-0.5892 1.4037,-0.64199 4.56042,-0.64199 3.15673,0 3.53176,0.0528 4.56043,0.64199 1.79814,1.02993 2.47569,2.25622 2.74887,4.97517 0.1533,1.52583 0.39696,2.54123 0.7116,2.96545 1.43246,1.93135 3.16445,2.18569 5.79604,0.85113 1.93291,-0.98023 3.60548,-1.08672 5.23307,-0.33317 1.38422,0.64087 2.18326,1.54394 3.70547,4.18789 1.37443,2.38726 1.68356,3.79378 1.21569,5.53132 -0.38906,1.44484 -1.14181,2.35303 -2.86281,3.45394 -1.69606,1.08495 -2.45325,2.2132 -2.45325,3.65544 0,1.44225 0.75719,2.5705 2.45325,3.65545 1.721,1.10091 2.47375,2.0091 2.86281,3.45394 0.46787,1.73754 0.15874,3.14406 -1.21569,5.53132 -1.52221,2.64395 -2.32125,3.54702 -3.70547,4.18789 -1.59329,0.73766 -3.15241,0.63926 -5.15938,-0.32563 -2.05398,-0.98749 -3.65427,-1.09837 -4.69014,-0.32499 -1.31703,0.98332 -1.64713,1.70488 -1.89119,4.13403 -0.27332,2.72036 -0.9525,3.94863 -2.74887,4.97124 -0.98131,0.55862 -1.49963,0.64561 -4.16355,0.69878 -1.67349,0.0334 -3.3591,-0.0409 -3.7458,-0.16507 z m 7.09943,-17.34277 c 1.94746,-0.88404 3.64495,-2.55812 4.63681,-4.57286 0.74496,-1.51324 0.84664,-1.98179 0.84664,-3.90133 0,-1.91953 -0.10168,-2.38808 -0.84664,-3.90132 -1.01018,-2.05195 -2.68946,-3.68595 -4.7691,-4.6405 -2.13498,-0.97994 -5.10145,-0.97994 -7.23643,0 -2.07964,0.95455 -3.75892,2.58855 -4.76909,4.6405 -0.74249,1.50821 -0.84647,1.98418 -0.84519,3.86889 0.001,1.75274 0.12858,2.42604 0.69067,3.65065 1.2608,2.74685 3.8938,4.93829 6.61633,5.50674 1.64721,0.34393 4.10571,0.0621 5.676,-0.65077 z"
         id="path1472" />
    </g>
    <text
       xml:space="preserve"
       style="font-style:normal;font-variant:normal;font-weight:normal;font-stretch:normal;font-size:26.2532px;line-height:1.25;font-family:Candara;-inkscape-font-specification:'Candara, Normal';font-variant-ligatures:normal;font-variant-position:normal;font-variant-caps:normal;font-variant-numeric:normal;font-variant-alternates:normal;font-variant-east-asian:normal;font-feature-settings:normal;font-variation-settings:normal;text-indent:0;text-align:start;text-decoration:none;text-decoration-line:none;text-decoration-style:solid;text-decoration-color:#000000;letter-spacing:0px;word-spacing:0px;text-transform:none;writing-mode:lr-tb;direction:ltr;text-orientation:mixed;dominant-baseline:auto;baseline-shift:baseline;text-anchor:start;white-space:normal;shape-padding:0;shape-margin:0;inline-size:0;opacity:1;vector-effect:none;fill:#008080;fill-opacity:1;stroke:#008080;stroke-width:0.656334;stroke-linecap:butt;stroke-linejoin:miter;stroke-miterlimit:4;stroke-dasharray:none;stroke-dashoffset:0;stroke-opacity:1;stop-color:#000000;stop-opacity:1"
       x="375.51538"
       y="172.67467"
       id="text1478"
       transform="matrix(0.99949552,0,0,0.99949552,-284.04021,-125.55268)"><tspan
         sodipodi:role="line"
         id="tspan1476"
         x="375.51538"
         y="172.67467">PILLY</tspan></text>
    <text
       transform="matrix(0.70448538,0,0,0.70448538,-217.25406,-39.142751)"
       id="text1478-6"
       y="172.67467"
       x="375.51538"
       style="font-style:normal;font-variant:normal;font-weight:normal;font-stretch:normal;font-size:26.2532px;line-height:1.25;font-family:Candara;-inkscape-font-specification:'Candara, Normal';font-variant-ligatures:normal;font-variant-position:normal;font-variant-caps:normal;font-variant-numeric:normal;font-variant-alternates:normal;font-variant-east-asian:normal;font-feature-settings:normal;font-variation-settings:normal;text-indent:0;text-align:start;text-decoration:none;text-decoration-line:none;text-decoration-style:solid;text-decoration-color:#000000;letter-spacing:0px;word-spacing:0px;text-transform:none;writing-mode:lr-tb;direction:ltr;text-orientation:mixed;dominant-baseline:auto;baseline-shift:baseline;text-anchor:start;white-space:normal;shape-padding:0;shape-margin:0;inline-size:0;opacity:1;vector-effect:none;fill:#ffffff;fill-opacity:1;stroke:#ffffff;stroke-width:0.656334;stroke-linecap:butt;stroke-linejoin:miter;stroke-miterlimit:4;stroke-dasharray:none;stroke-dashoffset:0;stroke-opacity:1;stop-color:#000000;stop-opacity:1"
       xml:space="preserve"><tspan
         y="172.67467"
         x="375.51538"
         id="tspan1476-4"
         sodipodi:role="line">aggiungi orario</tspan></text>
    <text
       xml:space="preserve"
       style="font-style:normal;font-variant:normal;font-weight:normal;font-stretch:normal;font-size:26.2532px;line-height:1.25;font-family:Candara;-inkscape-font-specification:'Candara, Normal';font-variant-ligatures:normal;font-variant-position:normal;font-variant-caps:normal;font-variant-numeric:normal;font-variant-alternates:normal;font-variant-east-asian:normal;font-feature-settings:normal;font-variation-settings:normal;text-indent:0;text-align:start;text-decoration:none;text-decoration-line:none;text-decoration-style:solid;text-decoration-color:#000000;letter-spacing:0px;word-spacing:0px;text-transform:none;writing-mode:lr-tb;direction:ltr;text-orientation:mixed;dominant-baseline:auto;baseline-shift:baseline;text-anchor:start;white-space:normal;shape-padding:0;shape-margin:0;inline-size:0;opacity:1;vector-effect:none;fill:#000000;fill-opacity:1;stroke:none;stroke-width:0.656334;stroke-linecap:butt;stroke-linejoin:miter;stroke-miterlimit:4;stroke-dasharray:none;stroke-dashoffset:0;stroke-opacity:1;stop-color:#000000;stop-opacity:1"
       x="114.42297"
       y="519.06421"
       id="text1512"
       transform="matrix(0.39707215,0,0,0.39707215,-19.277018,-72.335652)"><tspan
         sodipodi:role="line"
         id="tspan1510"
         x="114.42297"
         y="519.06421">lunedi, mercoledi, venerdi</tspan></text>
    <text
       xml:space="preserve"
       style="font-style:normal;font-variant:normal;font-weight:normal;font-stretch:normal;font-size:26.2532px;line-height:1.25;font-family:Candara;-inkscape-font-specification:'Candara, Normal';font-variant-ligatures:normal;font-variant-position:normal;font-variant-caps:normal;font-variant-numeric:normal;font-variant-alternates:normal;font-variant-east-asian:normal;font-feature-settings:normal;font-variation-settings:normal;text-indent:0;text-align:start;text-decoration:none;text-decoration-line:none;text-decoration-style:solid;text-decoration-color:#000000;letter-spacing:0px;word-spacing:0px;text-transform:none;writing-mode:lr-tb;direction:ltr;text-orientation:mixed;dominant-baseline:auto;baseline-shift:baseline;text-anchor:start;white-space:normal;shape-padding:0;shape-margin:0;inline-size:0;opacity:1;vector-effect:none;fill:#000000;fill-opacity:1;stroke:#000000;stroke-width:0.656334;stroke-linecap:butt;stroke-linejoin:miter;stroke-miterlimit:4;stroke-dasharray:none;stroke-dashoffset:0;stroke-opacity:1;stop-color:#000000;stop-opacity:1"
       x="100.90026"
       y="564.83337"
       id="text1516"
       transform="matrix(0.59553254,0,0,0.59553254,-33.95301,-215.88479)"><tspan
         sodipodi:role="line"
         id="tspan1514"
         x="100.90026"
         y="564.83337">Cardioaspirin</tspan></text>
    <text
       transform="matrix(0.67385495,0,0,0.67385495,66.034934,-228.44243)"
       id="text1520"
       y="519.06421"
       x="114.42297"
       style="font-style:normal;font-variant:normal;font-weight:normal;font-stretch:normal;font-size:26.2532px;line-height:1.25;font-family:Candara;-inkscape-font-specification:'Candara, Normal';font-variant-ligatures:normal;font-variant-position:normal;font-variant-caps:normal;font-variant-numeric:normal;font-variant-alternates:normal;font-variant-east-asian:normal;font-feature-settings:normal;font-variation-settings:normal;text-indent:0;text-align:start;text-decoration:none;text-decoration-line:none;text-decoration-style:solid;text-decoration-color:#000000;letter-spacing:0px;word-spacing:0px;text-transform:none;writing-mode:lr-tb;direction:ltr;text-orientation:mixed;dominant-baseline:auto;baseline-shift:baseline;text-anchor:start;white-space:normal;shape-padding:0;shape-margin:0;inline-size:0;opacity:1;vector-effect:none;fill:#000000;fill-opacity:1;stroke:#000000;stroke-width:0.656334;stroke-linecap:butt;stroke-linejoin:miter;stroke-miterlimit:4;stroke-dasharray:none;stroke-dashoffset:0;stroke-opacity:1;stop-color:#000000;stop-opacity:1"
       xml:space="preserve"><tspan
         y="519.06421"
         x="114.42297"
         id="tspan1518"
         sodipodi:role="line">16:30</tspan></text>
    <text
       xml:space="preserve"
       style="font-style:normal;font-variant:normal;font-weight:normal;font-stretch:normal;font-size:26.2532px;line-height:1.25;font-family:Candara;-inkscape-font-specification:'Candara, Normal';font-variant-ligatures:normal;font-variant-position:normal;font-variant-caps:normal;font-variant-numeric:normal;font-variant-alternates:normal;font-variant-east-asian:normal;font-feature-settings:normal;font-variation-settings:normal;text-indent:0;text-align:start;text-decoration:none;text-decoration-line:none;text-decoration-style:solid;text-decoration-color:#000000;letter-spacing:0px;word-spacing:0px;text-transform:none;writing-mode:lr-tb;direction:ltr;text-orientation:mixed;dominant-baseline:auto;baseline-shift:baseline;text-anchor:start;white-space:normal;shape-padding:0;shape-margin:0;inline-size:0;opacity:1;vector-effect:none;fill:#000000;fill-opacity:1;stroke:#000000;stroke-width:0.656334;stroke-linecap:butt;stroke-linejoin:miter;stroke-miterlimit:4;stroke-dasharray:none;stroke-dashoffset:0;stroke-opacity:1;stop-color:#000000;stop-opacity:1"
       x="111.30234"
       y="587.71802"
       id="text1524"
       transform="matrix(0.3222123,0,0,0.3222123,-9.4476724,-46.816296)"><tspan
         sodipodi:role="line"
         id="tspan1522"
         x="111.30234"
         y="587.71802">cassetto 1</tspan></text>
    <path
       id="path870"
       d="m 26.963971,151.76043 h 154.965479"
       style="fill:#008080;fill-opacity:1;stroke:#008080;stroke-width:0.262324;stroke-linecap:round;stroke-linejoin:round;stroke-miterlimit:4;stroke-dasharray:none;stroke-opacity:1" />
    <text
       transform="matrix(0.39707215,0,0,0.39707215,-19.277018,-15.822347)"
       id="text898"
       y="519.06421"
       x="114.42297"
       style="font-style:normal;font-variant:normal;font-weight:normal;font-stretch:normal;font-size:26.2532px;line-height:1.25;font-family:Candara;-inkscape-font-specification:'Candara, Normal';font-variant-ligatures:normal;font-variant-position:normal;font-variant-caps:normal;font-variant-numeric:normal;font-variant-alternates:normal;font-variant-east-asian:normal;font-feature-settings:normal;font-variation-settings:normal;text-indent:0;text-align:start;text-decoration:none;text-decoration-line:none;text-decoration-style:solid;text-decoration-color:#000000;letter-spacing:0px;word-spacing:0px;text-transform:none;writing-mode:lr-tb;direction:ltr;text-orientation:mixed;dominant-baseline:auto;baseline-shift:baseline;text-anchor:start;white-space:normal;shape-padding:0;shape-margin:0;inline-size:0;opacity:1;vector-effect:none;fill:#000000;fill-opacity:1;stroke:none;stroke-width:0.656334;stroke-linecap:butt;stroke-linejoin:miter;stroke-miterlimit:4;stroke-dasharray:none;stroke-dashoffset:0;stroke-opacity:1;stop-color:#000000;stop-opacity:1"
       xml:space="preserve"><tspan
         y="519.06421"
         x="114.42297"
         id="tspan896"
         sodipodi:role="line">lunedi, mercoledi, sabato</tspan></text>
    <text
       transform="matrix(0.59553254,0,0,0.59553254,-33.95301,-159.37149)"
       id="text902"
       y="564.83337"
       x="100.90026"
       style="font-style:normal;font-variant:normal;font-weight:normal;font-stretch:normal;font-size:26.2532px;line-height:1.25;font-family:Candara;-inkscape-font-specification:'Candara, Normal';font-variant-ligatures:normal;font-variant-position:normal;font-variant-caps:normal;font-variant-numeric:normal;font-variant-alternates:normal;font-variant-east-asian:normal;font-feature-settings:normal;font-variation-settings:normal;text-indent:0;text-align:start;text-decoration:none;text-decoration-line:none;text-decoration-style:solid;text-decoration-color:#000000;letter-spacing:0px;word-spacing:0px;text-transform:none;writing-mode:lr-tb;direction:ltr;text-orientation:mixed;dominant-baseline:auto;baseline-shift:baseline;text-anchor:start;white-space:normal;shape-padding:0;shape-margin:0;inline-size:0;opacity:1;vector-effect:none;fill:#000000;fill-opacity:1;stroke:#000000;stroke-width:0.656334;stroke-linecap:butt;stroke-linejoin:miter;stroke-miterlimit:4;stroke-dasharray:none;stroke-dashoffset:0;stroke-opacity:1;stop-color:#000000;stop-opacity:1"
       xml:space="preserve"><tspan
         y="564.83337"
         x="100.90026"
         id="tspan900"
         sodipodi:role="line">Omega3</tspan></text>
    <text
       xml:space="preserve"
       style="font-style:normal;font-variant:normal;font-weight:normal;font-stretch:normal;font-size:26.2532px;line-height:1.25;font-family:Candara;-inkscape-font-specification:'Candara, Normal';font-variant-ligatures:normal;font-variant-position:normal;font-variant-caps:normal;font-variant-numeric:normal;font-variant-alternates:normal;font-variant-east-asian:normal;font-feature-settings:normal;font-variation-settings:normal;text-indent:0;text-align:start;text-decoration:none;text-decoration-line:none;text-decoration-style:solid;text-decoration-color:#000000;letter-spacing:0px;word-spacing:0px;text-transform:none;writing-mode:lr-tb;direction:ltr;text-orientation:mixed;dominant-baseline:auto;baseline-shift:baseline;text-anchor:start;white-space:normal;shape-padding:0;shape-margin:0;inline-size:0;opacity:1;vector-effect:none;fill:#000000;fill-opacity:1;stroke:#000000;stroke-width:0.656334;stroke-linecap:butt;stroke-linejoin:miter;stroke-miterlimit:4;stroke-dasharray:none;stroke-dashoffset:0;stroke-opacity:1;stop-color:#000000;stop-opacity:1"
       x="114.42297"
       y="519.06421"
       id="text906"
       transform="matrix(0.67385495,0,0,0.67385495,66.034934,-171.92913)"><tspan
         sodipodi:role="line"
         id="tspan904"
         x="114.42297"
         y="519.06421">13:30</tspan></text>
    <text
       transform="matrix(0.3222123,0,0,0.3222123,-9.4476724,9.6970083)"
       id="text910"
       y="587.71802"
       x="111.30234"
       style="font-style:normal;font-variant:normal;font-weight:normal;font-stretch:normal;font-size:26.2532px;line-height:1.25;font-family:Candara;-inkscape-font-specification:'Candara, Normal';font-variant-ligatures:normal;font-variant-position:normal;font-variant-caps:normal;font-variant-numeric:normal;font-variant-alternates:normal;font-variant-east-asian:normal;font-feature-settings:normal;font-variation-settings:normal;text-indent:0;text-align:start;text-decoration:none;text-decoration-line:none;text-decoration-style:solid;text-decoration-color:#000000;letter-spacing:0px;word-spacing:0px;text-transform:none;writing-mode:lr-tb;direction:ltr;text-orientation:mixed;dominant-baseline:auto;baseline-shift:baseline;text-anchor:start;white-space:normal;shape-padding:0;shape-margin:0;inline-size:0;opacity:1;vector-effect:none;fill:#000000;fill-opacity:1;stroke:#000000;stroke-width:0.656334;stroke-linecap:butt;stroke-linejoin:miter;stroke-miterlimit:4;stroke-dasharray:none;stroke-dashoffset:0;stroke-opacity:1;stop-color:#000000;stop-opacity:1"
       xml:space="preserve"><tspan
         y="587.71802"
         x="111.30234"
         id="tspan908"
         sodipodi:role="line">cassetto 2</tspan></text>
    <path
       style="fill:#008080;fill-opacity:1;stroke:#008080;stroke-width:0.262324;stroke-linecap:round;stroke-linejoin:round;stroke-miterlimit:4;stroke-dasharray:none;stroke-opacity:1"
       d="m 26.963971,208.27373 h 154.965479"
       id="path912" />
    <text
       xml:space="preserve"
       style="font-style:normal;font-variant:normal;font-weight:normal;font-stretch:normal;font-size:26.2532px;line-height:1.25;font-family:Candara;-inkscape-font-specification:'Candara, Normal';font-variant-ligatures:normal;font-variant-position:normal;font-variant-caps:normal;font-variant-numeric:normal;font-variant-alternates:normal;font-variant-east-asian:normal;font-feature-settings:normal;font-variation-settings:normal;text-indent:0;text-align:start;text-decoration:none;text-decoration-line:none;text-decoration-style:solid;text-decoration-color:#000000;letter-spacing:0px;word-spacing:0px;text-transform:none;writing-mode:lr-tb;direction:ltr;text-orientation:mixed;dominant-baseline:auto;baseline-shift:baseline;text-anchor:start;white-space:normal;shape-padding:0;shape-margin:0;inline-size:0;opacity:1;vector-effect:none;fill:#000000;fill-opacity:1;stroke:none;stroke-width:0.656334;stroke-linecap:butt;stroke-linejoin:miter;stroke-miterlimit:4;stroke-dasharray:none;stroke-dashoffset:0;stroke-opacity:1;stop-color:#000000;stop-opacity:1"
       x="114.42297"
       y="519.06421"
       id="text916"
       transform="matrix(0.39707215,0,0,0.39707215,-19.277018,41.893368)"><tspan
         sodipodi:role="line"
         id="tspan914"
         x="114.42297"
         y="519.06421">tutti i santi giorni</tspan></text>
    <text
       xml:space="preserve"
       style="font-style:normal;font-variant:normal;font-weight:normal;font-stretch:normal;font-size:26.2532px;line-height:1.25;font-family:Candara;-inkscape-font-specification:'Candara, Normal';font-variant-ligatures:normal;font-variant-position:normal;font-variant-caps:normal;font-variant-numeric:normal;font-variant-alternates:normal;font-variant-east-asian:normal;font-feature-settings:normal;font-variation-settings:normal;text-indent:0;text-align:start;text-decoration:none;text-decoration-line:none;text-decoration-style:solid;text-decoration-color:#000000;letter-spacing:0px;word-spacing:0px;text-transform:none;writing-mode:lr-tb;direction:ltr;text-orientation:mixed;dominant-baseline:auto;baseline-shift:baseline;text-anchor:start;white-space:normal;shape-padding:0;shape-margin:0;inline-size:0;opacity:1;vector-effect:none;fill:#000000;fill-opacity:1;stroke:#000000;stroke-width:0.656334;stroke-linecap:butt;stroke-linejoin:miter;stroke-miterlimit:4;stroke-dasharray:none;stroke-dashoffset:0;stroke-opacity:1;stop-color:#000000;stop-opacity:1"
       x="100.90026"
       y="564.83337"
       id="text920"
       transform="matrix(0.59553254,0,0,0.59553254,-33.95301,-101.65577)"><tspan
         sodipodi:role="line"
         id="tspan918"
         x="100.90026"
         y="564.83337">Anvedi</tspan></text>
    <text
       transform="matrix(0.67385495,0,0,0.67385495,71.564644,-114.21341)"
       id="text924"
       y="519.06421"
       x="114.42297"
       style="font-style:normal;font-variant:normal;font-weight:normal;font-stretch:normal;font-size:26.2532px;line-height:1.25;font-family:Candara;-inkscape-font-specification:'Candara, Normal';font-variant-ligatures:normal;font-variant-position:normal;font-variant-caps:normal;font-variant-numeric:normal;font-variant-alternates:normal;font-variant-east-asian:normal;font-feature-settings:normal;font-variation-settings:normal;text-indent:0;text-align:start;text-decoration:none;text-decoration-line:none;text-decoration-style:solid;text-decoration-color:#000000;letter-spacing:0px;word-spacing:0px;text-transform:none;writing-mode:lr-tb;direction:ltr;text-orientation:mixed;dominant-baseline:auto;baseline-shift:baseline;text-anchor:start;white-space:normal;shape-padding:0;shape-margin:0;inline-size:0;opacity:1;vector-effect:none;fill:#000000;fill-opacity:1;stroke:#000000;stroke-width:0.656334;stroke-linecap:butt;stroke-linejoin:miter;stroke-miterlimit:4;stroke-dasharray:none;stroke-dashoffset:0;stroke-opacity:1;stop-color:#000000;stop-opacity:1"
       xml:space="preserve"><tspan
         y="519.06421"
         x="114.42297"
         id="tspan922"
         sodipodi:role="line">9:00</tspan></text>
    <text
       xml:space="preserve"
       style="font-style:normal;font-variant:normal;font-weight:normal;font-stretch:normal;font-size:26.2532px;line-height:1.25;font-family:Candara;-inkscape-font-specification:'Candara, Normal';font-variant-ligatures:normal;font-variant-position:normal;font-variant-caps:normal;font-variant-numeric:normal;font-variant-alternates:normal;font-variant-east-asian:normal;font-feature-settings:normal;font-variation-settings:normal;text-indent:0;text-align:start;text-decoration:none;text-decoration-line:none;text-decoration-style:solid;text-decoration-color:#000000;letter-spacing:0px;word-spacing:0px;text-transform:none;writing-mode:lr-tb;direction:ltr;text-orientation:mixed;dominant-baseline:auto;baseline-shift:baseline;text-anchor:start;white-space:normal;shape-padding:0;shape-margin:0;inline-size:0;opacity:1;vector-effect:none;fill:#000000;fill-opacity:1;stroke:#000000;stroke-width:0.656334;stroke-linecap:butt;stroke-linejoin:miter;stroke-miterlimit:4;stroke-dasharray:none;stroke-dashoffset:0;stroke-opacity:1;stop-color:#000000;stop-opacity:1"
       x="111.30234"
       y="587.71802"
       id="text928"
       transform="matrix(0.3222123,0,0,0.3222123,-9.4476724,67.412724)"><tspan
         sodipodi:role="line"
         id="tspan926"
         x="111.30234"
         y="587.71802">cassetto 3</tspan></text>
    <path
       id="path930"
       d="m 26.963971,265.98945 h 154.965479"
       style="fill:#008080;fill-opacity:1;stroke:#008080;stroke-width:0.262324;stroke-linecap:round;stroke-linejoin:round;stroke-miterlimit:4;stroke-dasharray:none;stroke-opacity:1" />
    <rect
       y="0"
       x="266.13358"
       height="297"
       width="210"
       id="rect1020"
       style="fill:#ffffff;fill-opacity:1;stroke:#008080;stroke-width:1;stroke-linecap:round;stroke-linejoin:round;stroke-opacity:1"
       ry="21.53923" />
    <g
       transform="matrix(0.53559425,0,0,0.53559425,382.73788,-15.839812)"
       id="g1038">
      <path
         sodipodi:nodetypes="ccccc"
         inkscape:connector-curvature="0"
         id="path1024"
         d="m 81.011461,84.125327 24.803829,24.803823 9.56954,-9.569543 c 13.40176,-12.3231 9.19732,-20.013 2.15126,-26.9551 -11.42652,-11.88377 -19.236647,-6.30872 -27.139418,1.96694"
         style="fill:#008080;fill-opacity:1;stroke:#ffffff;stroke-width:2.64599;stroke-linecap:butt;stroke-linejoin:miter;stroke-miterlimit:4;stroke-dasharray:none;stroke-opacity:1" />
      <path
         style="fill:#bdf4ee;fill-opacity:1;stroke:#ffffff;stroke-width:2.64583;stroke-linecap:butt;stroke-linejoin:miter;stroke-miterlimit:4;stroke-dasharray:none;stroke-opacity:1"
         d="m 105.81529,108.92915 -24.803829,-24.803823 -9.569539,9.56954 c -13.401759,12.323103 -9.19732,20.013003 -2.151259,26.955103 11.426518,11.88377 19.236648,6.30872 27.139419,-1.96694"
         id="path1026"
         inkscape:connector-curvature="0"
         sodipodi:nodetypes="ccccc" />
      <path
         inkscape:connector-curvature="0"
         id="path1028"
         d="m 96.85418,79.382017 4.44336,-4.44336"
         style="fill:#ffffff;fill-opacity:1;stroke:#ffffff;stroke-width:2.5831;stroke-linecap:round;stroke-linejoin:miter;stroke-miterlimit:4;stroke-dasharray:none;stroke-opacity:1" />
      <path
         inkscape:connector-curvature="0"
         id="path1030"
         d="m 90.396672,74.371447 -9.385211,9.75388"
         style="fill:none;stroke:#ffffff;stroke-width:2.64583;stroke-linecap:butt;stroke-linejoin:miter;stroke-miterlimit:4;stroke-dasharray:none;stroke-opacity:1" />
      <path
         inkscape:connector-curvature="0"
         id="path1032"
         d="m 105.81529,108.92915 -9.385197,9.75387"
         style="fill:none;stroke:#ffffff;stroke-width:2.64583;stroke-linecap:butt;stroke-linejoin:miter;stroke-miterlimit:4;stroke-dasharray:none;stroke-opacity:1" />
      <path
         sodipodi:nodetypes="cc"
         inkscape:connector-curvature="0"
         id="path1034"
         d="m 89.027041,116.00456 c -6.50905,6.16984 -7.71218,5.53459 -13.994309,0.16269"
         style="fill:none;stroke:#ffffff;stroke-width:2.64583;stroke-linecap:round;stroke-linejoin:miter;stroke-miterlimit:4;stroke-dasharray:none;stroke-opacity:1" />
      <path
         inkscape:connector-curvature="0"
         id="path1036"
         d="m 101.01582,104.23286 4.44336,-4.443364"
         style="fill:#ffffff;fill-opacity:1;stroke:#ffffff;stroke-width:2.5831;stroke-linecap:round;stroke-linejoin:miter;stroke-miterlimit:4;stroke-dasharray:none;stroke-opacity:1" />
    </g>
    <text
       transform="matrix(0.99949552,0,0,0.99949552,-17.906634,-125.55268)"
       id="text1046"
       y="172.67467"
       x="375.51538"
       style="font-style:normal;font-variant:normal;font-weight:normal;font-stretch:normal;font-size:26.2532px;line-height:1.25;font-family:Candara;-inkscape-font-specification:'Candara, Normal';font-variant-ligatures:normal;font-variant-position:normal;font-variant-caps:normal;font-variant-numeric:normal;font-variant-alternates:normal;font-variant-east-asian:normal;font-feature-settings:normal;font-variation-settings:normal;text-indent:0;text-align:start;text-decoration:none;text-decoration-line:none;text-decoration-style:solid;text-decoration-color:#000000;letter-spacing:0px;word-spacing:0px;text-transform:none;writing-mode:lr-tb;direction:ltr;text-orientation:mixed;dominant-baseline:auto;baseline-shift:baseline;text-anchor:start;white-space:normal;shape-padding:0;shape-margin:0;inline-size:0;opacity:1;vector-effect:none;fill:#008080;fill-opacity:1;stroke:#008080;stroke-width:0.656334;stroke-linecap:butt;stroke-linejoin:miter;stroke-miterlimit:4;stroke-dasharray:none;stroke-dashoffset:0;stroke-opacity:1;stop-color:#000000;stop-opacity:1"
       xml:space="preserve"><tspan
         y="172.67467"
         x="375.51538"
         id="tspan1044"
         sodipodi:role="line">PILLY</tspan></text>
    <rect
       ry="21.53923"
       style="fill:#ffffff;fill-opacity:1;stroke:#008080;stroke-width:1;stroke-linecap:round;stroke-linejoin:round;stroke-opacity:1"
       id="rect1108"
       width="210"
       height="297"
       x="531.24902"
       y="0" />
    <g
       id="g1126"
       transform="matrix(0.53559425,0,0,0.53559425,642.34229,-15.839812)">
      <path
         style="fill:#008080;fill-opacity:1;stroke:#ffffff;stroke-width:2.64599;stroke-linecap:butt;stroke-linejoin:miter;stroke-miterlimit:4;stroke-dasharray:none;stroke-opacity:1"
         d="m 81.011461,84.125327 24.803829,24.803823 9.56954,-9.569543 c 13.40176,-12.3231 9.19732,-20.013 2.15126,-26.9551 -11.42652,-11.88377 -19.236647,-6.30872 -27.139418,1.96694"
         id="path1112"
         inkscape:connector-curvature="0"
         sodipodi:nodetypes="ccccc" />
      <path
         sodipodi:nodetypes="ccccc"
         inkscape:connector-curvature="0"
         id="path1114"
         d="m 105.81529,108.92915 -24.803829,-24.803823 -9.569539,9.56954 c -13.401759,12.323103 -9.19732,20.013003 -2.151259,26.955103 11.426518,11.88377 19.236648,6.30872 27.139419,-1.96694"
         style="fill:#bdf4ee;fill-opacity:1;stroke:#ffffff;stroke-width:2.64583;stroke-linecap:butt;stroke-linejoin:miter;stroke-miterlimit:4;stroke-dasharray:none;stroke-opacity:1" />
      <path
         style="fill:#ffffff;fill-opacity:1;stroke:#ffffff;stroke-width:2.5831;stroke-linecap:round;stroke-linejoin:miter;stroke-miterlimit:4;stroke-dasharray:none;stroke-opacity:1"
         d="m 96.85418,79.382017 4.44336,-4.44336"
         id="path1116"
         inkscape:connector-curvature="0" />
      <path
         style="fill:none;stroke:#ffffff;stroke-width:2.64583;stroke-linecap:butt;stroke-linejoin:miter;stroke-miterlimit:4;stroke-dasharray:none;stroke-opacity:1"
         d="m 90.396672,74.371447 -9.385211,9.75388"
         id="path1118"
         inkscape:connector-curvature="0" />
      <path
         style="fill:none;stroke:#ffffff;stroke-width:2.64583;stroke-linecap:butt;stroke-linejoin:miter;stroke-miterlimit:4;stroke-dasharray:none;stroke-opacity:1"
         d="m 105.81529,108.92915 -9.385197,9.75387"
         id="path1120"
         inkscape:connector-curvature="0" />
      <path
         style="fill:none;stroke:#ffffff;stroke-width:2.64583;stroke-linecap:round;stroke-linejoin:miter;stroke-miterlimit:4;stroke-dasharray:none;stroke-opacity:1"
         d="m 89.027041,116.00456 c -6.50905,6.16984 -7.71218,5.53459 -13.994309,0.16269"
         id="path1122"
         inkscape:connector-curvature="0"
         sodipodi:nodetypes="cc" />
      <path
         style="fill:#ffffff;fill-opacity:1;stroke:#ffffff;stroke-width:2.5831;stroke-linecap:round;stroke-linejoin:miter;stroke-miterlimit:4;stroke-dasharray:none;stroke-opacity:1"
         d="m 101.01582,104.23286 4.44336,-4.443364"
         id="path1124"
         inkscape:connector-curvature="0" />
    </g>
    <text
       xml:space="preserve"
       style="font-style:normal;font-variant:normal;font-weight:normal;font-stretch:normal;font-size:26.2532px;line-height:1.25;font-family:Candara;-inkscape-font-specification:'Candara, Normal';font-variant-ligatures:normal;font-variant-position:normal;font-variant-caps:normal;font-variant-numeric:normal;font-variant-alternates:normal;font-variant-east-asian:normal;font-feature-settings:normal;font-variation-settings:normal;text-indent:0;text-align:start;text-decoration:none;text-decoration-line:none;text-decoration-style:solid;text-decoration-color:#000000;letter-spacing:0px;word-spacing:0px;text-transform:none;writing-mode:lr-tb;direction:ltr;text-orientation:mixed;dominant-baseline:auto;baseline-shift:baseline;text-anchor:start;white-space:normal;shape-padding:0;shape-margin:0;inline-size:0;opacity:1;vector-effect:none;fill:#008080;fill-opacity:1;stroke:#008080;stroke-width:0.656334;stroke-linecap:butt;stroke-linejoin:miter;stroke-miterlimit:4;stroke-dasharray:none;stroke-dashoffset:0;stroke-opacity:1;stop-color:#000000;stop-opacity:1"
       x="375.51538"
       y="172.67467"
       id="text1134"
       transform="matrix(0.99949552,0,0,0.99949552,241.69778,-125.55268)"><tspan
         sodipodi:role="line"
         id="tspan1132"
         x="375.51538"
         y="172.67467">PILLY</tspan></text>
    <rect
       y="66.053261"
       x="292.9664"
       height="31.448835"
       width="155.22777"
       id="rect1374"
       style="fill:#f0f0f0;fill-opacity:1;stroke:none;stroke-width:0.265787;stroke-linecap:round;stroke-linejoin:round;stroke-miterlimit:4;stroke-dasharray:none;stroke-opacity:1" />
    <path
       id="path1376"
       d="m 292.96639,98.0021 h 155.22776"
       style="fill:none;stroke:#008080;stroke-width:1;stroke-linecap:butt;stroke-linejoin:miter;stroke-miterlimit:4;stroke-dasharray:none;stroke-opacity:1" />
    <text
       xml:space="preserve"
       style="font-style:normal;font-variant:normal;font-weight:normal;font-stretch:normal;font-size:26.2532px;line-height:1.25;font-family:Candara;-inkscape-font-specification:'Candara, Normal';font-variant-ligatures:normal;font-variant-position:normal;font-variant-caps:normal;font-variant-numeric:normal;font-variant-alternates:normal;font-variant-east-asian:normal;font-feature-settings:normal;font-variation-settings:normal;text-indent:0;text-align:start;text-decoration:none;text-decoration-line:none;text-decoration-style:solid;text-decoration-color:#000000;letter-spacing:0px;word-spacing:0px;text-transform:none;writing-mode:lr-tb;direction:ltr;text-orientation:mixed;dominant-baseline:auto;baseline-shift:baseline;text-anchor:start;white-space:normal;shape-padding:0;shape-margin:0;inline-size:0;opacity:1;vector-effect:none;fill:#008080;fill-opacity:1;stroke:#008080;stroke-width:0.656334;stroke-linecap:butt;stroke-linejoin:miter;stroke-miterlimit:4;stroke-dasharray:none;stroke-dashoffset:0;stroke-opacity:1;stop-color:#000000;stop-opacity:1"
       x="375.51538"
       y="172.67467"
       id="text1380"
       transform="matrix(0.23564974,0,0,0.23564974,208.89227,33.742786)"><tspan
         sodipodi:role="line"
         id="tspan1378"
         x="375.51538"
         y="172.67467">nome pasticca</tspan></text>
    <text
       transform="matrix(0.58754386,0,0,0.58754386,-475.91915,-233.20663)"
       id="text1384"
       y="552.16217"
       x="1314.8882"
       style="font-style:normal;font-variant:normal;font-weight:normal;font-stretch:normal;font-size:26.2532px;line-height:1.25;font-family:Candara;-inkscape-font-specification:'Candara, Normal';font-variant-ligatures:normal;font-variant-position:normal;font-variant-caps:normal;font-variant-numeric:normal;font-variant-alternates:normal;font-variant-east-asian:normal;font-feature-settings:normal;font-variation-settings:normal;text-indent:0;text-align:start;text-decoration:none;text-decoration-line:none;text-decoration-style:solid;text-decoration-color:#000000;letter-spacing:0px;word-spacing:0px;text-transform:none;writing-mode:lr-tb;direction:ltr;text-orientation:mixed;dominant-baseline:auto;baseline-shift:baseline;text-anchor:start;white-space:normal;shape-padding:0;shape-margin:0;inline-size:0;opacity:1;vector-effect:none;fill:#000000;fill-opacity:1;stroke:none;stroke-width:0.656334;stroke-linecap:butt;stroke-linejoin:miter;stroke-miterlimit:4;stroke-dasharray:none;stroke-dashoffset:0;stroke-opacity:1;stop-color:#000000;stop-opacity:1"
       xml:space="preserve"><tspan
         y="552.16217"
         x="1314.8882"
         id="tspan1382"
         sodipodi:role="line">Cardioaspirin</tspan></text>
    <rect
       ry="0.9051832"
       y="112.82586"
       x="298.30429"
       height="8.1927824"
       width="8.1927824"
       id="rect1386"
       style="fill:#008080;fill-opacity:1;stroke:#008080;stroke-width:0.451684;stroke-linecap:round;stroke-linejoin:round;stroke-miterlimit:4;stroke-dasharray:none;stroke-opacity:1" />
    <text
       transform="matrix(0.52966194,0,0,0.52966194,-421.24154,-234.56252)"
       id="text1390"
       y="671.83514"
       x="1380.0267"
       style="font-style:normal;font-variant:normal;font-weight:normal;font-stretch:normal;font-size:26.2532px;line-height:1.25;font-family:Candara;-inkscape-font-specification:'Candara, Normal';font-variant-ligatures:normal;font-variant-position:normal;font-variant-caps:normal;font-variant-numeric:normal;font-variant-alternates:normal;font-variant-east-asian:normal;font-feature-settings:normal;font-variation-settings:normal;text-indent:0;text-align:start;text-decoration:none;text-decoration-line:none;text-decoration-style:solid;text-decoration-color:#000000;letter-spacing:0px;word-spacing:0px;text-transform:none;writing-mode:lr-tb;direction:ltr;text-orientation:mixed;dominant-baseline:auto;baseline-shift:baseline;text-anchor:start;white-space:normal;shape-padding:0;shape-margin:0;inline-size:0;opacity:1;vector-effect:none;fill:#000000;fill-opacity:1;stroke:none;stroke-width:0.656334;stroke-linecap:butt;stroke-linejoin:miter;stroke-miterlimit:4;stroke-dasharray:none;stroke-dashoffset:0;stroke-opacity:1;stop-color:#000000;stop-opacity:1"
       xml:space="preserve"><tspan
         y="671.83514"
         x="1380.0267"
         id="tspan1388"
         sodipodi:role="line">lunedì</tspan></text>
    <rect
       style="fill:none;fill-opacity:1;stroke:#6e6e6e;stroke-width:0.451684;stroke-linecap:round;stroke-linejoin:round;stroke-miterlimit:4;stroke-dasharray:none;stroke-opacity:1"
       id="rect1392"
       width="8.1927824"
       height="8.1927824"
       x="298.30429"
       y="126.71299"
       ry="0.9051832" />
    <text
       xml:space="preserve"
       style="font-style:normal;font-variant:normal;font-weight:normal;font-stretch:normal;font-size:26.2532px;line-height:1.25;font-family:Candara;-inkscape-font-specification:'Candara, Normal';font-variant-ligatures:normal;font-variant-position:normal;font-variant-caps:normal;font-variant-numeric:normal;font-variant-alternates:normal;font-variant-east-asian:normal;font-feature-settings:normal;font-variation-settings:normal;text-indent:0;text-align:start;text-decoration:none;text-decoration-line:none;text-decoration-style:solid;text-decoration-color:#000000;letter-spacing:0px;word-spacing:0px;text-transform:none;writing-mode:lr-tb;direction:ltr;text-orientation:mixed;dominant-baseline:auto;baseline-shift:baseline;text-anchor:start;white-space:normal;shape-padding:0;shape-margin:0;inline-size:0;opacity:1;vector-effect:none;fill:#000000;fill-opacity:1;stroke:none;stroke-width:0.656334;stroke-linecap:butt;stroke-linejoin:miter;stroke-miterlimit:4;stroke-dasharray:none;stroke-dashoffset:0;stroke-opacity:1;stop-color:#000000;stop-opacity:1"
       x="1380.0267"
       y="671.83514"
       id="text1396"
       transform="matrix(0.52966194,0,0,0.52966194,-421.24154,-220.67538)"><tspan
         sodipodi:role="line"
         id="tspan1394"
         x="1380.0267"
         y="671.83514">martedì</tspan></text>
    <rect
       ry="0.9051832"
       y="140.03329"
       x="298.30429"
       height="8.1927824"
       width="8.1927824"
       id="rect1398"
       style="fill:#008080;fill-opacity:1;stroke:#008080;stroke-width:0.451684;stroke-linecap:round;stroke-linejoin:round;stroke-miterlimit:4;stroke-dasharray:none;stroke-opacity:1" />
    <text
       transform="matrix(0.52966194,0,0,0.52966194,-421.24154,-207.35507)"
       id="text1402"
       y="671.83514"
       x="1380.0267"
       style="font-style:normal;font-variant:normal;font-weight:normal;font-stretch:normal;font-size:26.2532px;line-height:1.25;font-family:Candara;-inkscape-font-specification:'Candara, Normal';font-variant-ligatures:normal;font-variant-position:normal;font-variant-caps:normal;font-variant-numeric:normal;font-variant-alternates:normal;font-variant-east-asian:normal;font-feature-settings:normal;font-variation-settings:normal;text-indent:0;text-align:start;text-decoration:none;text-decoration-line:none;text-decoration-style:solid;text-decoration-color:#000000;letter-spacing:0px;word-spacing:0px;text-transform:none;writing-mode:lr-tb;direction:ltr;text-orientation:mixed;dominant-baseline:auto;baseline-shift:baseline;text-anchor:start;white-space:normal;shape-padding:0;shape-margin:0;inline-size:0;opacity:1;vector-effect:none;fill:#000000;fill-opacity:1;stroke:none;stroke-width:0.656334;stroke-linecap:butt;stroke-linejoin:miter;stroke-miterlimit:4;stroke-dasharray:none;stroke-dashoffset:0;stroke-opacity:1;stop-color:#000000;stop-opacity:1"
       xml:space="preserve"><tspan
         y="671.83514"
         x="1380.0267"
         id="tspan1400"
         sodipodi:role="line">mercoledì</tspan></text>
    <rect
       style="fill:none;fill-opacity:1;stroke:#6e6e6e;stroke-width:0.451684;stroke-linecap:round;stroke-linejoin:round;stroke-miterlimit:4;stroke-dasharray:none;stroke-opacity:1"
       id="rect1404"
       width="8.1927824"
       height="8.1927824"
       x="298.30429"
       y="153.77872"
       ry="0.9051832" />
    <text
       xml:space="preserve"
       style="font-style:normal;font-variant:normal;font-weight:normal;font-stretch:normal;font-size:26.2532px;line-height:1.25;font-family:Candara;-inkscape-font-specification:'Candara, Normal';font-variant-ligatures:normal;font-variant-position:normal;font-variant-caps:normal;font-variant-numeric:normal;font-variant-alternates:normal;font-variant-east-asian:normal;font-feature-settings:normal;font-variation-settings:normal;text-indent:0;text-align:start;text-decoration:none;text-decoration-line:none;text-decoration-style:solid;text-decoration-color:#000000;letter-spacing:0px;word-spacing:0px;text-transform:none;writing-mode:lr-tb;direction:ltr;text-orientation:mixed;dominant-baseline:auto;baseline-shift:baseline;text-anchor:start;white-space:normal;shape-padding:0;shape-margin:0;inline-size:0;opacity:1;vector-effect:none;fill:#000000;fill-opacity:1;stroke:none;stroke-width:0.656334;stroke-linecap:butt;stroke-linejoin:miter;stroke-miterlimit:4;stroke-dasharray:none;stroke-dashoffset:0;stroke-opacity:1;stop-color:#000000;stop-opacity:1"
       x="1380.0267"
       y="671.83514"
       id="text1408"
       transform="matrix(0.52966194,0,0,0.52966194,-421.24154,-193.60964)"><tspan
         sodipodi:role="line"
         id="tspan1406"
         x="1380.0267"
         y="671.83514">giovedì</tspan></text>
    <rect
       ry="0.9051832"
       y="167.52415"
       x="298.30429"
       height="8.1927824"
       width="8.1927824"
       id="rect1410"
       style="fill:#008080;fill-opacity:1;stroke:#008080;stroke-width:0.451684;stroke-linecap:round;stroke-linejoin:round;stroke-miterlimit:4;stroke-dasharray:none;stroke-opacity:1" />
    <text
       transform="matrix(0.52966194,0,0,0.52966194,-421.24154,-179.86421)"
       id="text1414"
       y="671.83514"
       x="1380.0267"
       style="font-style:normal;font-variant:normal;font-weight:normal;font-stretch:normal;font-size:26.2532px;line-height:1.25;font-family:Candara;-inkscape-font-specification:'Candara, Normal';font-variant-ligatures:normal;font-variant-position:normal;font-variant-caps:normal;font-variant-numeric:normal;font-variant-alternates:normal;font-variant-east-asian:normal;font-feature-settings:normal;font-variation-settings:normal;text-indent:0;text-align:start;text-decoration:none;text-decoration-line:none;text-decoration-style:solid;text-decoration-color:#000000;letter-spacing:0px;word-spacing:0px;text-transform:none;writing-mode:lr-tb;direction:ltr;text-orientation:mixed;dominant-baseline:auto;baseline-shift:baseline;text-anchor:start;white-space:normal;shape-padding:0;shape-margin:0;inline-size:0;opacity:1;vector-effect:none;fill:#000000;fill-opacity:1;stroke:none;stroke-width:0.656334;stroke-linecap:butt;stroke-linejoin:miter;stroke-miterlimit:4;stroke-dasharray:none;stroke-dashoffset:0;stroke-opacity:1;stop-color:#000000;stop-opacity:1"
       xml:space="preserve"><tspan
         y="671.83514"
         x="1380.0267"
         id="tspan1412"
         sodipodi:role="line">venerdì</tspan></text>
    <rect
       style="fill:none;fill-opacity:1;stroke:#6e6e6e;stroke-width:0.451684;stroke-linecap:round;stroke-linejoin:round;stroke-miterlimit:4;stroke-dasharray:none;stroke-opacity:1"
       id="rect1428"
       width="8.1927824"
       height="8.1927824"
       x="376.52567"
       y="112.82586"
       ry="0.9051832" />
    <text
       xml:space="preserve"
       style="font-style:normal;font-variant:normal;font-weight:normal;font-stretch:normal;font-size:26.2532px;line-height:1.25;font-family:Candara;-inkscape-font-specification:'Candara, Normal';font-variant-ligatures:normal;font-variant-position:normal;font-variant-caps:normal;font-variant-numeric:normal;font-variant-alternates:normal;font-variant-east-asian:normal;font-feature-settings:normal;font-variation-settings:normal;text-indent:0;text-align:start;text-decoration:none;text-decoration-line:none;text-decoration-style:solid;text-decoration-color:#000000;letter-spacing:0px;word-spacing:0px;text-transform:none;writing-mode:lr-tb;direction:ltr;text-orientation:mixed;dominant-baseline:auto;baseline-shift:baseline;text-anchor:start;white-space:normal;shape-padding:0;shape-margin:0;inline-size:0;opacity:1;vector-effect:none;fill:#000000;fill-opacity:1;stroke:none;stroke-width:0.656334;stroke-linecap:butt;stroke-linejoin:miter;stroke-miterlimit:4;stroke-dasharray:none;stroke-dashoffset:0;stroke-opacity:1;stop-color:#000000;stop-opacity:1"
       x="1380.0267"
       y="671.83514"
       id="text1432"
       transform="matrix(0.52966194,0,0,0.52966194,-343.02013,-234.56252)"><tspan
         sodipodi:role="line"
         id="tspan1430"
         x="1380.0267"
         y="671.83514">sabato</tspan></text>
    <rect
       ry="0.9051832"
       y="126.71299"
       x="376.52567"
       height="8.1927824"
       width="8.1927824"
       id="rect1434"
       style="fill:none;fill-opacity:1;stroke:#6e6e6e;stroke-width:0.451684;stroke-linecap:round;stroke-linejoin:round;stroke-miterlimit:4;stroke-dasharray:none;stroke-opacity:1" />
    <text
       transform="matrix(0.52966194,0,0,0.52966194,-343.02013,-220.67538)"
       id="text1438"
       y="671.83514"
       x="1380.0267"
       style="font-style:normal;font-variant:normal;font-weight:normal;font-stretch:normal;font-size:26.2532px;line-height:1.25;font-family:Candara;-inkscape-font-specification:'Candara, Normal';font-variant-ligatures:normal;font-variant-position:normal;font-variant-caps:normal;font-variant-numeric:normal;font-variant-alternates:normal;font-variant-east-asian:normal;font-feature-settings:normal;font-variation-settings:normal;text-indent:0;text-align:start;text-decoration:none;text-decoration-line:none;text-decoration-style:solid;text-decoration-color:#000000;letter-spacing:0px;word-spacing:0px;text-transform:none;writing-mode:lr-tb;direction:ltr;text-orientation:mixed;dominant-baseline:auto;baseline-shift:baseline;text-anchor:start;white-space:normal;shape-padding:0;shape-margin:0;inline-size:0;opacity:1;vector-effect:none;fill:#000000;fill-opacity:1;stroke:none;stroke-width:0.656334;stroke-linecap:butt;stroke-linejoin:miter;stroke-miterlimit:4;stroke-dasharray:none;stroke-dashoffset:0;stroke-opacity:1;stop-color:#000000;stop-opacity:1"
       xml:space="preserve"><tspan
         y="671.83514"
         x="1380.0267"
         id="tspan1436"
         sodipodi:role="line">domenica</tspan></text>
    <rect
       style="fill:#f0f0f0;fill-opacity:1;stroke:none;stroke-width:0.265787;stroke-linecap:round;stroke-linejoin:round;stroke-miterlimit:4;stroke-dasharray:none;stroke-opacity:1"
       id="rect1448"
       width="155.22777"
       height="31.448835"
       x="292.9664"
       y="190.27614" />
    <path
       style="fill:none;stroke:#008080;stroke-width:1;stroke-linecap:butt;stroke-linejoin:miter;stroke-miterlimit:4;stroke-dasharray:none;stroke-opacity:1"
       d="m 292.96639,222.225 h 155.22776"
       id="path1450" />
    <text
       xml:space="preserve"
       style="font-style:normal;font-variant:normal;font-weight:normal;font-stretch:normal;font-size:26.2532px;line-height:1.25;font-family:Candara;-inkscape-font-specification:'Candara, Normal';font-variant-ligatures:normal;font-variant-position:normal;font-variant-caps:normal;font-variant-numeric:normal;font-variant-alternates:normal;font-variant-east-asian:normal;font-feature-settings:normal;font-variation-settings:normal;text-indent:0;text-align:start;text-decoration:none;text-decoration-line:none;text-decoration-style:solid;text-decoration-color:#000000;letter-spacing:0px;word-spacing:0px;text-transform:none;writing-mode:lr-tb;direction:ltr;text-orientation:mixed;dominant-baseline:auto;baseline-shift:baseline;text-anchor:start;white-space:normal;shape-padding:0;shape-margin:0;inline-size:0;opacity:1;vector-effect:none;fill:#000000;fill-opacity:1;stroke:none;stroke-width:0.656334;stroke-linecap:butt;stroke-linejoin:miter;stroke-miterlimit:4;stroke-dasharray:none;stroke-dashoffset:0;stroke-opacity:1;stop-color:#000000;stop-opacity:1"
       x="1314.8882"
       y="552.16217"
       id="text1458"
       transform="matrix(0.58754386,0,0,0.58754386,-473.65186,-113.59297)"><tspan
         sodipodi:role="line"
         id="tspan1456"
         x="1314.8882"
         y="552.16217">Cassetto 1</tspan></text>
    <path
       transform="matrix(0.66151828,0,0,0.39381307,152.47496,118.81669)"
       inkscape:transform-center-y="0.66631806"
       inkscape:transform-center-x="2.8098632e-06"
       d="m 431.91644,217.56709 -2.93056,5.07587 -2.93055,5.07587 -2.93056,-5.07587 -2.93055,-5.07587 5.86111,0 z"
       inkscape:randomized="0"
       inkscape:rounded="0"
       inkscape:flatsided="false"
       sodipodi:arg2="0.52359878"
       sodipodi:arg1="-0.52359878"
       sodipodi:r2="3.3839133"
       sodipodi:r1="6.7678266"
       sodipodi:cy="220.951"
       sodipodi:cx="426.05533"
       sodipodi:sides="3"
       id="path1460"
       style="fill:#008080;fill-opacity:1;stroke:none;stroke-width:1;stroke-linecap:round;stroke-linejoin:round;stroke-miterlimit:4;stroke-dasharray:none;stroke-opacity:1"
       sodipodi:type="star" />
    <text
       xml:space="preserve"
       style="font-style:normal;font-variant:normal;font-weight:normal;font-stretch:normal;font-size:26.2532px;line-height:1.25;font-family:Candara;-inkscape-font-specification:'Candara, Normal';font-variant-ligatures:normal;font-variant-position:normal;font-variant-caps:normal;font-variant-numeric:normal;font-variant-alternates:normal;font-variant-east-asian:normal;font-feature-settings:normal;font-variation-settings:normal;text-indent:0;text-align:start;text-decoration:none;text-decoration-line:none;text-decoration-style:solid;text-decoration-color:#000000;letter-spacing:0px;word-spacing:0px;text-transform:none;writing-mode:lr-tb;direction:ltr;text-orientation:mixed;dominant-baseline:auto;baseline-shift:baseline;text-anchor:start;white-space:normal;shape-padding:0;shape-margin:0;inline-size:0;opacity:1;vector-effect:none;fill:#000000;fill-opacity:1;stroke:#000000;stroke-width:0.656334;stroke-linecap:butt;stroke-linejoin:miter;stroke-miterlimit:4;stroke-dasharray:none;stroke-dashoffset:0;stroke-opacity:1;stop-color:#000000;stop-opacity:1"
       x="114.42297"
       y="519.06421"
       id="text1468"
       transform="matrix(1.4666227,0,0,1.4666227,123.90271,-499.09886)"><tspan
         sodipodi:role="line"
         id="tspan1466"
         x="114.42297"
         y="519.06421">13:00</tspan></text>
    <rect
       ry="5.1419806"
       y="240.00034"
       x="387.95602"
       height="25.595638"
       width="60.238171"
       id="rect1478"
       style="fill:#008080;fill-opacity:1;stroke:none;stroke-width:0.605932;stroke-linecap:round;stroke-linejoin:round;stroke-opacity:1" />
    <text
       xml:space="preserve"
       style="font-style:normal;font-variant:normal;font-weight:normal;font-stretch:normal;font-size:26.2532px;line-height:1.25;font-family:Candara;-inkscape-font-specification:'Candara, Normal';font-variant-ligatures:normal;font-variant-position:normal;font-variant-caps:normal;font-variant-numeric:normal;font-variant-alternates:normal;font-variant-east-asian:normal;font-feature-settings:normal;font-variation-settings:normal;text-indent:0;text-align:start;text-decoration:none;text-decoration-line:none;text-decoration-style:solid;text-decoration-color:#000000;letter-spacing:0px;word-spacing:0px;text-transform:none;writing-mode:lr-tb;direction:ltr;text-orientation:mixed;dominant-baseline:auto;baseline-shift:baseline;text-anchor:start;white-space:normal;shape-padding:0;shape-margin:0;inline-size:0;opacity:1;vector-effect:none;fill:#ffffff;fill-opacity:1;stroke:#ffffff;stroke-width:0.656334;stroke-linecap:butt;stroke-linejoin:miter;stroke-miterlimit:4;stroke-dasharray:none;stroke-dashoffset:0;stroke-opacity:1;stop-color:#000000;stop-opacity:1"
       x="375.51538"
       y="172.67467"
       id="text1482"
       transform="matrix(0.70448538,0,0,0.70448538,134.51574,137.41873)"><tspan
         sodipodi:role="line"
         id="tspan1480"
         x="375.51538"
         y="172.67467">salva</tspan></text>
    <path
       id="path1484"
       d="m 299.4014,118.29519 2.15432,1.55312 3.65733,-5.46095"
       style="fill:none;stroke:#ffffff;stroke-width:0.865;stroke-linecap:round;stroke-linejoin:round;stroke-opacity:1;stroke-miterlimit:4;stroke-dasharray:none" />
    <path
       style="fill:none;stroke:#ffffff;stroke-width:0.865;stroke-linecap:round;stroke-linejoin:round;stroke-miterlimit:4;stroke-dasharray:none;stroke-opacity:1"
       d="m 299.4014,144.93582 2.15432,1.55312 3.65733,-5.46095"
       id="path1486" />
    <path
       id="path1488"
       d="m 299.4014,172.71009 2.15432,1.55312 3.65733,-5.46095"
       style="fill:none;stroke:#ffffff;stroke-width:0.865;stroke-linecap:round;stroke-linejoin:round;stroke-miterlimit:4;stroke-dasharray:none;stroke-opacity:1" />
    <g
       transform="matrix(0.27830018,0,0,0.27830018,122.11113,23.910092)"
       style="fill:#ff0000;stroke:none"
       id="g1518">
      <path
         id="path1522"
         d="m 178.03712,440.82291 c 0.18191,-0.0734 0.47956,-0.0734 0.66146,0 0.1819,0.0734 0.0331,0.13345 -0.33073,0.13345 -0.3638,0 -0.51263,-0.06 -0.33073,-0.13345 z m 28.83959,0 c 0.1819,-0.0734 0.47955,-0.0734 0.66146,0 0.1819,0.0734 0.0331,0.13345 -0.33073,0.13345 -0.36381,0 -0.51263,-0.06 -0.33073,-0.13345 z m -30.09636,-0.35394 c -0.21828,-0.14106 -0.27781,-0.25648 -0.13229,-0.25648 0.14552,0 0.44318,0.11542 0.66146,0.25648 0.21828,0.14107 0.27781,0.25648 0.13229,0.25648 -0.14552,0 -0.44318,-0.11541 -0.66146,-0.25648 z m 31.48542,0 c 0.21828,-0.14106 0.51594,-0.25648 0.66146,-0.25648 0.14552,0 0.086,0.11542 -0.13229,0.25648 -0.21828,0.14107 -0.51594,0.25648 -0.66146,0.25648 -0.14552,0 -0.086,-0.11541 0.13229,-0.25648 z m -33.49493,-1.38906 -0.50403,-0.59531 0.59531,0.50403 c 0.55945,0.47366 0.71577,0.68659 0.50403,0.68659 -0.0502,0 -0.31809,-0.26789 -0.59531,-0.59531 z m 35.74389,0.0661 c 0.26339,-0.29105 0.53842,-0.52917 0.61118,-0.52917 0.0728,0 -0.0832,0.23812 -0.3466,0.52917 -0.26339,0.29104 -0.53842,0.52916 -0.61118,0.52916 -0.0728,0 0.0832,-0.23812 0.3466,-0.52916 z m -36.80683,-1.46347 c -0.24134,-0.36834 -0.39068,-0.71784 -0.33186,-0.77667 0.0588,-0.0588 0.30754,0.24255 0.5527,0.66972 0.54602,0.95137 0.38389,1.02989 -0.22084,0.10695 z m 37.90167,0.008 c 0.61173,-1.04469 0.62495,-1.06023 0.62495,-0.73487 0,0.15365 -0.24519,0.56045 -0.54487,0.90399 l -0.54487,0.62463 z m -38.5125,-1.60955 c 0.0127,-0.30823 0.0754,-0.37092 0.15986,-0.15986 0.0764,0.191 0.067,0.4192 -0.0209,0.50712 -0.0879,0.0879 -0.15045,-0.0684 -0.13897,-0.34726 z m 39.15834,0 c 0.0127,-0.30823 0.0754,-0.37092 0.15985,-0.15986 0.0764,0.191 0.067,0.4192 -0.0209,0.50712 -0.0879,0.0879 -0.15045,-0.0684 -0.13896,-0.34726 z m -39.31791,-21.01233 c 0,-11.27786 0.0326,-15.89154 0.0725,-10.2526 0.0399,5.63893 0.0399,14.86627 0,20.5052 -0.0399,5.63894 -0.0725,1.02527 -0.0725,-10.2526 z m 39.6875,0 c 0,-11.27786 0.0326,-15.89154 0.0725,-10.2526 0.0399,5.63893 0.0399,14.86627 0,20.5052 -0.0399,5.63894 -0.0725,1.02527 -0.0725,-10.2526 z m -31.39297,-23.7463 c 6.45025,-0.0395 16.92775,-0.0394 23.28334,3e-5 6.35558,0.0395 1.07811,0.0718 -11.72773,0.0717 -12.80583,-2e-5 -18.00585,-0.0323 -11.55561,-0.0718 z m -5.90862,-6.61454 5.81911,-0.0769 1.72152,-1.64831 1.72152,-1.6483 -1.71215,1.78593 -1.71214,1.78594 -5.82848,-0.0607 -5.82848,-0.0607 z m 27.37847,-1.5876 -1.71215,-1.78593 1.72152,1.6483 1.72153,1.64831 5.8191,0.0769 5.8191,0.0769 -5.82848,0.0607 -5.82848,0.0607 z"
         style="fill:#ff0000;fill-opacity:1;stroke:none;stroke-width:0.264583" />
      <path
         id="path1520"
         d="m 178.1932,440.75015 c -2.27509,-0.55676 -4.26683,-2.38995 -4.84036,-4.45505 -0.17755,-0.63928 -0.27422,-8.11963 -0.27518,-21.29227 l -0.001,-20.30677 h 19.71146 19.71146 l -0.002,20.30677 c -0.001,13.17264 -0.0976,20.65299 -0.27517,21.29227 -0.40989,1.47587 -1.80734,3.12585 -3.29523,3.8907 l -1.32292,0.68005 -14.2875,0.0444 c -7.85812,0.0245 -14.66375,-0.0476 -15.12361,-0.16015 z m -8.5566,-52.66868 v -3.175 h 5.76233 5.76234 l 1.7045,-1.71979 1.7045,-1.71979 h 8.21737 8.21738 l 1.7045,1.71979 1.7045,1.71979 h 5.76234 5.76233 v 3.175 3.175 h -23.15105 -23.15104 z"
         style="fill:#ff0000;fill-opacity:1;stroke:none;stroke-width:0.264583" />
    </g>
    <g
       id="g1528"
       style="fill:#ff0000;stroke:none"
       transform="matrix(0.27830018,0,0,0.27830018,122.11113,80.700173)">
      <path
         style="fill:#ff0000;fill-opacity:1;stroke:none;stroke-width:0.264583"
         d="m 178.03712,440.82291 c 0.18191,-0.0734 0.47956,-0.0734 0.66146,0 0.1819,0.0734 0.0331,0.13345 -0.33073,0.13345 -0.3638,0 -0.51263,-0.06 -0.33073,-0.13345 z m 28.83959,0 c 0.1819,-0.0734 0.47955,-0.0734 0.66146,0 0.1819,0.0734 0.0331,0.13345 -0.33073,0.13345 -0.36381,0 -0.51263,-0.06 -0.33073,-0.13345 z m -30.09636,-0.35394 c -0.21828,-0.14106 -0.27781,-0.25648 -0.13229,-0.25648 0.14552,0 0.44318,0.11542 0.66146,0.25648 0.21828,0.14107 0.27781,0.25648 0.13229,0.25648 -0.14552,0 -0.44318,-0.11541 -0.66146,-0.25648 z m 31.48542,0 c 0.21828,-0.14106 0.51594,-0.25648 0.66146,-0.25648 0.14552,0 0.086,0.11542 -0.13229,0.25648 -0.21828,0.14107 -0.51594,0.25648 -0.66146,0.25648 -0.14552,0 -0.086,-0.11541 0.13229,-0.25648 z m -33.49493,-1.38906 -0.50403,-0.59531 0.59531,0.50403 c 0.55945,0.47366 0.71577,0.68659 0.50403,0.68659 -0.0502,0 -0.31809,-0.26789 -0.59531,-0.59531 z m 35.74389,0.0661 c 0.26339,-0.29105 0.53842,-0.52917 0.61118,-0.52917 0.0728,0 -0.0832,0.23812 -0.3466,0.52917 -0.26339,0.29104 -0.53842,0.52916 -0.61118,0.52916 -0.0728,0 0.0832,-0.23812 0.3466,-0.52916 z m -36.80683,-1.46347 c -0.24134,-0.36834 -0.39068,-0.71784 -0.33186,-0.77667 0.0588,-0.0588 0.30754,0.24255 0.5527,0.66972 0.54602,0.95137 0.38389,1.02989 -0.22084,0.10695 z m 37.90167,0.008 c 0.61173,-1.04469 0.62495,-1.06023 0.62495,-0.73487 0,0.15365 -0.24519,0.56045 -0.54487,0.90399 l -0.54487,0.62463 z m -38.5125,-1.60955 c 0.0127,-0.30823 0.0754,-0.37092 0.15986,-0.15986 0.0764,0.191 0.067,0.4192 -0.0209,0.50712 -0.0879,0.0879 -0.15045,-0.0684 -0.13897,-0.34726 z m 39.15834,0 c 0.0127,-0.30823 0.0754,-0.37092 0.15985,-0.15986 0.0764,0.191 0.067,0.4192 -0.0209,0.50712 -0.0879,0.0879 -0.15045,-0.0684 -0.13896,-0.34726 z m -39.31791,-21.01233 c 0,-11.27786 0.0326,-15.89154 0.0725,-10.2526 0.0399,5.63893 0.0399,14.86627 0,20.5052 -0.0399,5.63894 -0.0725,1.02527 -0.0725,-10.2526 z m 39.6875,0 c 0,-11.27786 0.0326,-15.89154 0.0725,-10.2526 0.0399,5.63893 0.0399,14.86627 0,20.5052 -0.0399,5.63894 -0.0725,1.02527 -0.0725,-10.2526 z m -31.39297,-23.7463 c 6.45025,-0.0395 16.92775,-0.0394 23.28334,3e-5 6.35558,0.0395 1.07811,0.0718 -11.72773,0.0717 -12.80583,-2e-5 -18.00585,-0.0323 -11.55561,-0.0718 z m -5.90862,-6.61454 5.81911,-0.0769 1.72152,-1.64831 1.72152,-1.6483 -1.71215,1.78593 -1.71214,1.78594 -5.82848,-0.0607 -5.82848,-0.0607 z m 27.37847,-1.5876 -1.71215,-1.78593 1.72152,1.6483 1.72153,1.64831 5.8191,0.0769 5.8191,0.0769 -5.82848,0.0607 -5.82848,0.0607 z"
         id="path1524" />
      <path
         style="fill:#ff0000;fill-opacity:1;stroke:none;stroke-width:0.264583"
         d="m 178.1932,440.75015 c -2.27509,-0.55676 -4.26683,-2.38995 -4.84036,-4.45505 -0.17755,-0.63928 -0.27422,-8.11963 -0.27518,-21.29227 l -0.001,-20.30677 h 19.71146 19.71146 l -0.002,20.30677 c -0.001,13.17264 -0.0976,20.65299 -0.27517,21.29227 -0.40989,1.47587 -1.80734,3.12585 -3.29523,3.8907 l -1.32292,0.68005 -14.2875,0.0444 c -7.85812,0.0245 -14.66375,-0.0476 -15.12361,-0.16015 z m -8.5566,-52.66868 v -3.175 h 5.76233 5.76234 l 1.7045,-1.71979 1.7045,-1.71979 h 8.21737 8.21738 l 1.7045,1.71979 1.7045,1.71979 h 5.76234 5.76233 v 3.175 3.175 h -23.15105 -23.15104 z"
         id="path1526" />
    </g>
    <g
       transform="matrix(0.27830018,0,0,0.27830018,122.11113,138.05635)"
       style="fill:#ff0000;stroke:none"
       id="g1534">
      <path
         id="path1530"
         d="m 178.03712,440.82291 c 0.18191,-0.0734 0.47956,-0.0734 0.66146,0 0.1819,0.0734 0.0331,0.13345 -0.33073,0.13345 -0.3638,0 -0.51263,-0.06 -0.33073,-0.13345 z m 28.83959,0 c 0.1819,-0.0734 0.47955,-0.0734 0.66146,0 0.1819,0.0734 0.0331,0.13345 -0.33073,0.13345 -0.36381,0 -0.51263,-0.06 -0.33073,-0.13345 z m -30.09636,-0.35394 c -0.21828,-0.14106 -0.27781,-0.25648 -0.13229,-0.25648 0.14552,0 0.44318,0.11542 0.66146,0.25648 0.21828,0.14107 0.27781,0.25648 0.13229,0.25648 -0.14552,0 -0.44318,-0.11541 -0.66146,-0.25648 z m 31.48542,0 c 0.21828,-0.14106 0.51594,-0.25648 0.66146,-0.25648 0.14552,0 0.086,0.11542 -0.13229,0.25648 -0.21828,0.14107 -0.51594,0.25648 -0.66146,0.25648 -0.14552,0 -0.086,-0.11541 0.13229,-0.25648 z m -33.49493,-1.38906 -0.50403,-0.59531 0.59531,0.50403 c 0.55945,0.47366 0.71577,0.68659 0.50403,0.68659 -0.0502,0 -0.31809,-0.26789 -0.59531,-0.59531 z m 35.74389,0.0661 c 0.26339,-0.29105 0.53842,-0.52917 0.61118,-0.52917 0.0728,0 -0.0832,0.23812 -0.3466,0.52917 -0.26339,0.29104 -0.53842,0.52916 -0.61118,0.52916 -0.0728,0 0.0832,-0.23812 0.3466,-0.52916 z m -36.80683,-1.46347 c -0.24134,-0.36834 -0.39068,-0.71784 -0.33186,-0.77667 0.0588,-0.0588 0.30754,0.24255 0.5527,0.66972 0.54602,0.95137 0.38389,1.02989 -0.22084,0.10695 z m 37.90167,0.008 c 0.61173,-1.04469 0.62495,-1.06023 0.62495,-0.73487 0,0.15365 -0.24519,0.56045 -0.54487,0.90399 l -0.54487,0.62463 z m -38.5125,-1.60955 c 0.0127,-0.30823 0.0754,-0.37092 0.15986,-0.15986 0.0764,0.191 0.067,0.4192 -0.0209,0.50712 -0.0879,0.0879 -0.15045,-0.0684 -0.13897,-0.34726 z m 39.15834,0 c 0.0127,-0.30823 0.0754,-0.37092 0.15985,-0.15986 0.0764,0.191 0.067,0.4192 -0.0209,0.50712 -0.0879,0.0879 -0.15045,-0.0684 -0.13896,-0.34726 z m -39.31791,-21.01233 c 0,-11.27786 0.0326,-15.89154 0.0725,-10.2526 0.0399,5.63893 0.0399,14.86627 0,20.5052 -0.0399,5.63894 -0.0725,1.02527 -0.0725,-10.2526 z m 39.6875,0 c 0,-11.27786 0.0326,-15.89154 0.0725,-10.2526 0.0399,5.63893 0.0399,14.86627 0,20.5052 -0.0399,5.63894 -0.0725,1.02527 -0.0725,-10.2526 z m -31.39297,-23.7463 c 6.45025,-0.0395 16.92775,-0.0394 23.28334,3e-5 6.35558,0.0395 1.07811,0.0718 -11.72773,0.0717 -12.80583,-2e-5 -18.00585,-0.0323 -11.55561,-0.0718 z m -5.90862,-6.61454 5.81911,-0.0769 1.72152,-1.64831 1.72152,-1.6483 -1.71215,1.78593 -1.71214,1.78594 -5.82848,-0.0607 -5.82848,-0.0607 z m 27.37847,-1.5876 -1.71215,-1.78593 1.72152,1.6483 1.72153,1.64831 5.8191,0.0769 5.8191,0.0769 -5.82848,0.0607 -5.82848,0.0607 z"
         style="fill:#ff0000;fill-opacity:1;stroke:none;stroke-width:0.264583" />
      <path
         id="path1532"
         d="m 178.1932,440.75015 c -2.27509,-0.55676 -4.26683,-2.38995 -4.84036,-4.45505 -0.17755,-0.63928 -0.27422,-8.11963 -0.27518,-21.29227 l -0.001,-20.30677 h 19.71146 19.71146 l -0.002,20.30677 c -0.001,13.17264 -0.0976,20.65299 -0.27517,21.29227 -0.40989,1.47587 -1.80734,3.12585 -3.29523,3.8907 l -1.32292,0.68005 -14.2875,0.0444 c -7.85812,0.0245 -14.66375,-0.0476 -15.12361,-0.16015 z m -8.5566,-52.66868 v -3.175 h 5.76233 5.76234 l 1.7045,-1.71979 1.7045,-1.71979 h 8.21737 8.21738 l 1.7045,1.71979 1.7045,1.71979 h 5.76234 5.76233 v 3.175 3.175 h -23.15105 -23.15104 z"
         style="fill:#ff0000;fill-opacity:1;stroke:none;stroke-width:0.264583" />
    </g>
    <g
       style="fill:#55d400;stroke:#55d400"
       transform="matrix(0.07451623,0,0,0.07451623,166.56337,123.36284)"
       id="g1578">
      <path
         id="path1584"
         d="m -263.86323,282.20042 c 0,-11.71443 0.0325,-16.50669 0.0722,-10.64948 0.0397,5.85722 0.0397,15.44175 0,21.29896 -0.0397,5.85721 -0.0722,1.06495 -0.0722,-10.64948 z m 46.57284,16.93333 c 2.32492,-2.32833 4.28666,-4.23333 4.35942,-4.23333 0.0728,0 -1.76991,1.905 -4.09484,4.23333 -2.32492,2.32834 -4.28666,4.23334 -4.35942,4.23334 -0.0728,0 1.76992,-1.905 4.09484,-4.23334 z m 6.61458,-6.61458 c 1.15734,-1.16417 2.16379,-2.11667 2.23655,-2.11667 0.0728,0 -0.81463,0.9525 -1.97196,2.11667 -1.15734,1.16417 -2.16379,2.11667 -2.23655,2.11667 -0.0728,0 0.81462,-0.9525 1.97196,-2.11667 z m 26.45834,-26.72292 c 5.09167,-5.09322 9.31711,-9.26041 9.38987,-9.26041 0.0728,0 -4.03362,4.16719 -9.12529,9.26041 -5.09167,5.09323 -9.31711,9.26042 -9.38988,9.26042 -0.0728,0 4.03363,-4.16719 9.1253,-9.26042 z m 12.17083,-12.17083 c 0.56839,-0.58208 1.09297,-1.05833 1.16573,-1.05833 0.0728,0 -0.33276,0.47625 -0.90115,1.05833 -0.56839,0.58208 -1.09296,1.05833 -1.16572,1.05833 -0.0728,0 0.33275,-0.47625 0.90114,-1.05833 z m -70.24688,-14.15521 c 4.87332,-4.87494 8.92012,-8.86354 8.99288,-8.86354 0.0728,0 -3.85497,3.9886 -8.72829,8.86354 -4.87332,4.87495 -8.92011,8.86354 -8.99287,8.86354 -0.0728,0 3.85496,-3.98859 8.72828,-8.86354 z m 99.74792,-15.61041 c 6.18335,-6.18464 11.30199,-11.2448 11.37475,-11.2448 0.0728,0 -4.92681,5.06016 -11.11016,11.2448 -6.18336,6.18463 -11.30199,11.24479 -11.37475,11.24479 -0.0728,0 4.92681,-5.06016 11.11016,-11.24479 z m -68.39479,-15.47813 c 5.23723,-5.23875 9.58177,-9.525 9.65453,-9.525 0.0728,0 -4.15271,4.28625 -9.38995,9.525 -5.23723,5.23875 -9.58177,9.525 -9.65453,9.525 -0.0728,0 4.15272,-4.28625 9.38995,-9.525 z m 108.87604,-25.26771 c 7.638807,-7.63984 13.94827,-13.89062 14.02103,-13.89062 0.07276,0 -6.11764,6.25078 -13.75644,13.89062 -7.63881,7.63985 -13.94827,13.89063 -14.02103,13.89063 -0.0728,0 6.11764,-6.25078 13.75644,-13.89063 z m -74.08333,-9.26041 c 4.87332,-4.87495 8.92011,-8.86355 8.99287,-8.86355 0.0728,0 -3.85497,3.9886 -8.72829,8.86355 -4.87332,4.87494 -8.92011,8.86354 -8.99287,8.86354 -0.0728,0 3.85497,-3.9886 8.72829,-8.86354 z m 79.634854,-19.64532 -2.773396,-2.84427 2.84427,2.7734 c 1.564349,1.52537 2.844271,2.80529 2.844271,2.84427 0,0.19109 -0.339153,-0.13158 -2.915145,-2.7734 z m -47.223394,-12.50156 c 4.65496,-4.65667 8.52309,-8.46667 8.59585,-8.46667 0.0728,0 -3.67631,3.81 -8.33127,8.46667 -4.65496,4.65667 -8.5231,8.46667 -8.59586,8.46667 -0.0728,0 3.67632,-3.81 8.33128,-8.46667 z m 88.767707,-4.86239 c 0,-0.0549 0.208359,-0.2633 0.46302,-0.46303 0.419645,-0.3291 0.429004,-0.31974 0.0999,0.0999 -0.345643,0.44073 -0.562916,0.58089 -0.562916,0.36313 z m 2.137555,-4.0232 c 0.0127,-0.30822 0.07539,-0.37092 0.159851,-0.15985 0.07643,0.19099 0.06703,0.4192 -0.02088,0.50712 -0.08792,0.0879 -0.150453,-0.0684 -0.138964,-0.34727 z m 0.264583,-5.02708 c 0.0127,-0.30823 0.07539,-0.37092 0.159851,-0.15985 0.07643,0.19099 0.06703,0.41919 -0.02088,0.50711 -0.08792,0.0879 -0.150452,-0.0683 -0.138964,-0.34726 z m -0.92992,-2.67852 c -0.143584,-0.37709 -0.113194,-0.40748 0.148114,-0.14812 0.180821,0.17948 0.262114,0.39297 0.180652,0.47444 -0.08146,0.0815 -0.229407,-0.0654 -0.328766,-0.32632 z m -72.645135,-0.34214 c -0.23847,-0.15411 -0.2711,-0.2581 -0.0818,-0.26053 0.17331,-0.002 0.3887,0.11501 0.47863,0.26053 0.20302,0.32849 0.11143,0.32849 -0.39687,0 z m 19.71146,-21.16667 c 5.23723,-5.238749 9.581772,-9.524999 9.654532,-9.524999 0.07276,0 -4.152722,4.28625 -9.389952,9.524999 -5.23723,5.23875 -9.58177,9.525 -9.65453,9.525 -0.0728,0 4.15271,-4.28625 9.38995,-9.525 z m 22.601846,-9.194269 -0.641432,-0.727605 0.727605,0.641433 c 0.680055,0.599516 0.848939,0.813776 0.641432,0.813776 -0.04739,0 -0.374814,-0.327422 -0.727605,-0.727604 z m -2.09664,-1.389063 c -0.238466,-0.154109 -0.2711,-0.258097 -0.08176,-0.260532 0.173312,-0.0022 0.388699,0.115011 0.478636,0.260532 0.203015,0.328487 0.111421,0.328487 -0.396876,0 z m -6.664193,-0.974491 c 0.190995,-0.07643 0.419201,-0.06703 0.507119,0.02089 0.08792,0.08792 -0.06835,0.150453 -0.347265,0.138965 -0.308227,-0.0127 -0.37092,-0.07539 -0.159854,-0.159853 z m 1.835547,-0.270568 c 0.327422,-0.06306 0.863203,-0.06306 1.190625,0 0.327422,0.06307 0.05953,0.114663 -0.595312,0.114663 -0.654844,0 -0.922735,-0.0516 -0.595313,-0.114663 z"
         style="fill:#55d400;fill-opacity:1;stroke:#55d400;stroke-width:0.264583" />
      <path
         id="path1582"
         d="m -206.17789,287.75667 c 4.80053,-4.80219 8.78778,-8.73125 8.86054,-8.73125 0.0728,0 -3.79542,3.92906 -8.59596,8.73125 -4.80053,4.80219 -8.78777,8.73125 -8.86053,8.73125 -0.0728,0 3.79542,-3.92906 8.59595,-8.73125 z m -53.57813,-30.82396 c 2.25205,-2.25557 4.15417,-4.10104 4.22693,-4.10104 0.0728,0 -1.71029,1.84547 -3.96234,4.10104 -2.25205,2.25558 -4.15417,4.10104 -4.22693,4.10104 -0.0728,0 1.71029,-1.84546 3.96234,-4.10104 z m 82.15313,1.98438 c 0.56839,-0.58209 1.09297,-1.05834 1.16573,-1.05834 0.0728,0 -0.33276,0.47625 -0.90115,1.05834 -0.56839,0.58208 -1.09296,1.05833 -1.16572,1.05833 -0.0728,0 0.33275,-0.47625 0.90114,-1.05833 z m 9.92187,-9.92188 c 4.72775,-4.72942 8.65544,-8.59896 8.7282,-8.59896 0.0728,0 -3.73586,3.86954 -8.46361,8.59896 -4.72775,4.72943 -8.65544,8.59896 -8.7282,8.59896 -0.0728,0 3.73587,-3.86953 8.46361,-8.59896 z m -61.7802,-22.09271 c 3.63583,-3.63802 6.67014,-6.61458 6.7429,-6.61458 0.0728,0 -2.84248,2.97656 -6.47832,6.61458 -3.63584,3.63803 -6.67015,6.61459 -6.74291,6.61459 -0.0728,0 2.84249,-2.97656 6.47833,-6.61459 z m 103.98125,-20.37291 c 5.23723,-5.23875 9.58177,-9.525 9.65453,-9.525 0.0728,0 -4.15272,4.28625 -9.38995,9.525 -5.23723,5.23875 -9.58177,9.525 -9.65453,9.525 -0.0728,0 4.15271,-4.28625 9.38995,-9.525 z m -72.76042,-10.58334 c 4.65496,-4.65666 8.5231,-8.46666 8.59586,-8.46666 0.0728,0 -3.67632,3.81 -8.33128,8.46666 -4.65496,4.65667 -8.52309,8.46667 -8.59585,8.46667 -0.0728,0 3.67631,-3.81 8.33127,-8.46667 z m 108.413173,-25.26784 4.696502,-4.7608 -20.570865,-20.57214 c -11.31398,-11.31467 -20.51134,-20.57213 -20.43858,-20.57213 0.0728,0 9.38959,9.25787 20.70407,20.57305 l 20.571784,20.57305 -4.829707,4.75989 -4.829709,4.75989 z m -73.223593,-9.65716 c 3.34461,-3.34697 6.14064,-6.08541 6.2134,-6.08541 0.0728,0 -2.60421,2.73844 -5.94881,6.08541 -3.34461,3.34698 -6.14064,6.08542 -6.2134,6.08542 -0.0728,0 2.60421,-2.73844 5.94881,-6.08542 z m 68.394172,-26.92135 -21.033752,-21.10052 21.100522,21.03375 c 11.605286,11.56856 21.100521,21.0638 21.100521,21.10052 0,0.0367 -0.03005,0.0668 -0.06677,0.0668 -0.03673,0 -9.531959,-9.49523 -21.100521,-21.10052 z m 32.676666,9.72344 c 3.781444,-3.78354 6.934883,-6.87917 7.007643,-6.87917 0.07276,0 -2.961616,3.09563 -6.74306,6.87917 -3.781443,3.78354 -6.934882,6.87916 -7.007643,6.87916 -0.07276,0 2.961616,-3.09562 6.74306,-6.87916 z m -69.188538,-14.41979 c 2.54349,-2.54662 4.68407,-4.63021 4.75683,-4.63021 0.0728,0 -1.94876,2.08359 -4.49225,4.63021 -2.5435,2.54661 -4.68407,4.6302 -4.75683,4.6302 -0.0728,0 1.94875,-2.08359 4.49225,-4.6302 z m 78.623022,1.4552 c 0,-0.3638 0.06005,-0.51263 0.133453,-0.33072 0.0734,0.1819 0.0734,0.47955 0,0.66145 -0.0734,0.1819 -0.133453,0.0331 -0.133453,-0.33073 z m -0.02088,-2.271 c 0.0127,-0.30823 0.07539,-0.37092 0.159851,-0.15985 0.07643,0.19099 0.06703,0.41919 -0.02088,0.50711 -0.08792,0.0879 -0.150453,-0.0684 -0.138964,-0.34726 z m -13.515753,-16.44827 -11.772845,-11.8401 11.840105,11.77284 c 6.512057,6.47507 11.840104,11.80311 11.840104,11.84011 0,0.18614 -0.964792,-0.76776 -11.907364,-11.77285 z"
         style="fill:#55d400;fill-opacity:1;stroke:#55d400;stroke-width:0.264583" />
      <path
         id="path1580"
         d="m -263.54838,303.1907 c -0.097,-0.097 -0.17639,-9.5964 -0.17639,-21.10974 v -20.93335 l 13.95677,-13.87332 c 7.67623,-7.63032 20.56474,-20.4267 28.64115,-28.43639 8.07641,-8.0097 23.13865,-22.95568 33.47165,-33.2133 16.58804,-16.46702 43.29024,-42.9395 56.75293,-56.26466 l 4.63187,-4.58456 20.5618,20.57034 20.561806,20.57033 -7.180934,7.27604 c -6.834386,6.9249 -20.939052,21.12487 -66.227512,66.675 -11.0684,11.13234 -29.7978,29.97398 -41.6209,41.87031 l -21.49655,21.62969 h -20.84965 c -11.46731,0 -20.92902,-0.0794 -21.02604,-0.17639 z m 169.085919,-169.09568 -21.103369,-21.1046 9.46272,-9.4183 c 5.34646,-5.321366 9.983476,-9.717467 10.659868,-10.106036 1.723774,-0.990261 4.311793,-1.593648 6.061043,-1.413109 0.876922,0.09051 2.184641,0.515172 3.31301,1.075861 1.725649,0.857478 3.00592,2.072891 17.22411,16.351564 14.401655,14.46292 15.390908,15.51563 15.857014,16.87432 1.011513,2.94855 0.417499,6.97276 -1.415992,9.59279 -0.434525,0.62092 -4.877168,5.20666 -9.872541,10.19053 l -9.082495,9.06158 z"
         style="fill:#55d400;fill-opacity:1;stroke:#55d400;stroke-width:0.264583" />
    </g>
    <g
       id="g1592"
       transform="matrix(0.07451623,0,0,0.07451623,166.56337,180.4802)"
       style="fill:#55d400;stroke:#55d400">
      <path
         style="fill:#55d400;fill-opacity:1;stroke:#55d400;stroke-width:0.264583"
         d="m -263.86323,282.20042 c 0,-11.71443 0.0325,-16.50669 0.0722,-10.64948 0.0397,5.85722 0.0397,15.44175 0,21.29896 -0.0397,5.85721 -0.0722,1.06495 -0.0722,-10.64948 z m 46.57284,16.93333 c 2.32492,-2.32833 4.28666,-4.23333 4.35942,-4.23333 0.0728,0 -1.76991,1.905 -4.09484,4.23333 -2.32492,2.32834 -4.28666,4.23334 -4.35942,4.23334 -0.0728,0 1.76992,-1.905 4.09484,-4.23334 z m 6.61458,-6.61458 c 1.15734,-1.16417 2.16379,-2.11667 2.23655,-2.11667 0.0728,0 -0.81463,0.9525 -1.97196,2.11667 -1.15734,1.16417 -2.16379,2.11667 -2.23655,2.11667 -0.0728,0 0.81462,-0.9525 1.97196,-2.11667 z m 26.45834,-26.72292 c 5.09167,-5.09322 9.31711,-9.26041 9.38987,-9.26041 0.0728,0 -4.03362,4.16719 -9.12529,9.26041 -5.09167,5.09323 -9.31711,9.26042 -9.38988,9.26042 -0.0728,0 4.03363,-4.16719 9.1253,-9.26042 z m 12.17083,-12.17083 c 0.56839,-0.58208 1.09297,-1.05833 1.16573,-1.05833 0.0728,0 -0.33276,0.47625 -0.90115,1.05833 -0.56839,0.58208 -1.09296,1.05833 -1.16572,1.05833 -0.0728,0 0.33275,-0.47625 0.90114,-1.05833 z m -70.24688,-14.15521 c 4.87332,-4.87494 8.92012,-8.86354 8.99288,-8.86354 0.0728,0 -3.85497,3.9886 -8.72829,8.86354 -4.87332,4.87495 -8.92011,8.86354 -8.99287,8.86354 -0.0728,0 3.85496,-3.98859 8.72828,-8.86354 z m 99.74792,-15.61041 c 6.18335,-6.18464 11.30199,-11.2448 11.37475,-11.2448 0.0728,0 -4.92681,5.06016 -11.11016,11.2448 -6.18336,6.18463 -11.30199,11.24479 -11.37475,11.24479 -0.0728,0 4.92681,-5.06016 11.11016,-11.24479 z m -68.39479,-15.47813 c 5.23723,-5.23875 9.58177,-9.525 9.65453,-9.525 0.0728,0 -4.15271,4.28625 -9.38995,9.525 -5.23723,5.23875 -9.58177,9.525 -9.65453,9.525 -0.0728,0 4.15272,-4.28625 9.38995,-9.525 z m 108.87604,-25.26771 c 7.638807,-7.63984 13.94827,-13.89062 14.02103,-13.89062 0.07276,0 -6.11764,6.25078 -13.75644,13.89062 -7.63881,7.63985 -13.94827,13.89063 -14.02103,13.89063 -0.0728,0 6.11764,-6.25078 13.75644,-13.89063 z m -74.08333,-9.26041 c 4.87332,-4.87495 8.92011,-8.86355 8.99287,-8.86355 0.0728,0 -3.85497,3.9886 -8.72829,8.86355 -4.87332,4.87494 -8.92011,8.86354 -8.99287,8.86354 -0.0728,0 3.85497,-3.9886 8.72829,-8.86354 z m 79.634854,-19.64532 -2.773396,-2.84427 2.84427,2.7734 c 1.564349,1.52537 2.844271,2.80529 2.844271,2.84427 0,0.19109 -0.339153,-0.13158 -2.915145,-2.7734 z m -47.223394,-12.50156 c 4.65496,-4.65667 8.52309,-8.46667 8.59585,-8.46667 0.0728,0 -3.67631,3.81 -8.33127,8.46667 -4.65496,4.65667 -8.5231,8.46667 -8.59586,8.46667 -0.0728,0 3.67632,-3.81 8.33128,-8.46667 z m 88.767707,-4.86239 c 0,-0.0549 0.208359,-0.2633 0.46302,-0.46303 0.419645,-0.3291 0.429004,-0.31974 0.0999,0.0999 -0.345643,0.44073 -0.562916,0.58089 -0.562916,0.36313 z m 2.137555,-4.0232 c 0.0127,-0.30822 0.07539,-0.37092 0.159851,-0.15985 0.07643,0.19099 0.06703,0.4192 -0.02088,0.50712 -0.08792,0.0879 -0.150453,-0.0684 -0.138964,-0.34727 z m 0.264583,-5.02708 c 0.0127,-0.30823 0.07539,-0.37092 0.159851,-0.15985 0.07643,0.19099 0.06703,0.41919 -0.02088,0.50711 -0.08792,0.0879 -0.150452,-0.0683 -0.138964,-0.34726 z m -0.92992,-2.67852 c -0.143584,-0.37709 -0.113194,-0.40748 0.148114,-0.14812 0.180821,0.17948 0.262114,0.39297 0.180652,0.47444 -0.08146,0.0815 -0.229407,-0.0654 -0.328766,-0.32632 z m -72.645135,-0.34214 c -0.23847,-0.15411 -0.2711,-0.2581 -0.0818,-0.26053 0.17331,-0.002 0.3887,0.11501 0.47863,0.26053 0.20302,0.32849 0.11143,0.32849 -0.39687,0 z m 19.71146,-21.16667 c 5.23723,-5.238749 9.581772,-9.524999 9.654532,-9.524999 0.07276,0 -4.152722,4.28625 -9.389952,9.524999 -5.23723,5.23875 -9.58177,9.525 -9.65453,9.525 -0.0728,0 4.15271,-4.28625 9.38995,-9.525 z m 22.601846,-9.194269 -0.641432,-0.727605 0.727605,0.641433 c 0.680055,0.599516 0.848939,0.813776 0.641432,0.813776 -0.04739,0 -0.374814,-0.327422 -0.727605,-0.727604 z m -2.09664,-1.389063 c -0.238466,-0.154109 -0.2711,-0.258097 -0.08176,-0.260532 0.173312,-0.0022 0.388699,0.115011 0.478636,0.260532 0.203015,0.328487 0.111421,0.328487 -0.396876,0 z m -6.664193,-0.974491 c 0.190995,-0.07643 0.419201,-0.06703 0.507119,0.02089 0.08792,0.08792 -0.06835,0.150453 -0.347265,0.138965 -0.308227,-0.0127 -0.37092,-0.07539 -0.159854,-0.159853 z m 1.835547,-0.270568 c 0.327422,-0.06306 0.863203,-0.06306 1.190625,0 0.327422,0.06307 0.05953,0.114663 -0.595312,0.114663 -0.654844,0 -0.922735,-0.0516 -0.595313,-0.114663 z"
         id="path1586" />
      <path
         style="fill:#55d400;fill-opacity:1;stroke:#55d400;stroke-width:0.264583"
         d="m -206.17789,287.75667 c 4.80053,-4.80219 8.78778,-8.73125 8.86054,-8.73125 0.0728,0 -3.79542,3.92906 -8.59596,8.73125 -4.80053,4.80219 -8.78777,8.73125 -8.86053,8.73125 -0.0728,0 3.79542,-3.92906 8.59595,-8.73125 z m -53.57813,-30.82396 c 2.25205,-2.25557 4.15417,-4.10104 4.22693,-4.10104 0.0728,0 -1.71029,1.84547 -3.96234,4.10104 -2.25205,2.25558 -4.15417,4.10104 -4.22693,4.10104 -0.0728,0 1.71029,-1.84546 3.96234,-4.10104 z m 82.15313,1.98438 c 0.56839,-0.58209 1.09297,-1.05834 1.16573,-1.05834 0.0728,0 -0.33276,0.47625 -0.90115,1.05834 -0.56839,0.58208 -1.09296,1.05833 -1.16572,1.05833 -0.0728,0 0.33275,-0.47625 0.90114,-1.05833 z m 9.92187,-9.92188 c 4.72775,-4.72942 8.65544,-8.59896 8.7282,-8.59896 0.0728,0 -3.73586,3.86954 -8.46361,8.59896 -4.72775,4.72943 -8.65544,8.59896 -8.7282,8.59896 -0.0728,0 3.73587,-3.86953 8.46361,-8.59896 z m -61.7802,-22.09271 c 3.63583,-3.63802 6.67014,-6.61458 6.7429,-6.61458 0.0728,0 -2.84248,2.97656 -6.47832,6.61458 -3.63584,3.63803 -6.67015,6.61459 -6.74291,6.61459 -0.0728,0 2.84249,-2.97656 6.47833,-6.61459 z m 103.98125,-20.37291 c 5.23723,-5.23875 9.58177,-9.525 9.65453,-9.525 0.0728,0 -4.15272,4.28625 -9.38995,9.525 -5.23723,5.23875 -9.58177,9.525 -9.65453,9.525 -0.0728,0 4.15271,-4.28625 9.38995,-9.525 z m -72.76042,-10.58334 c 4.65496,-4.65666 8.5231,-8.46666 8.59586,-8.46666 0.0728,0 -3.67632,3.81 -8.33128,8.46666 -4.65496,4.65667 -8.52309,8.46667 -8.59585,8.46667 -0.0728,0 3.67631,-3.81 8.33127,-8.46667 z m 108.413173,-25.26784 4.696502,-4.7608 -20.570865,-20.57214 c -11.31398,-11.31467 -20.51134,-20.57213 -20.43858,-20.57213 0.0728,0 9.38959,9.25787 20.70407,20.57305 l 20.571784,20.57305 -4.829707,4.75989 -4.829709,4.75989 z m -73.223593,-9.65716 c 3.34461,-3.34697 6.14064,-6.08541 6.2134,-6.08541 0.0728,0 -2.60421,2.73844 -5.94881,6.08541 -3.34461,3.34698 -6.14064,6.08542 -6.2134,6.08542 -0.0728,0 2.60421,-2.73844 5.94881,-6.08542 z m 68.394172,-26.92135 -21.033752,-21.10052 21.100522,21.03375 c 11.605286,11.56856 21.100521,21.0638 21.100521,21.10052 0,0.0367 -0.03005,0.0668 -0.06677,0.0668 -0.03673,0 -9.531959,-9.49523 -21.100521,-21.10052 z m 32.676666,9.72344 c 3.781444,-3.78354 6.934883,-6.87917 7.007643,-6.87917 0.07276,0 -2.961616,3.09563 -6.74306,6.87917 -3.781443,3.78354 -6.934882,6.87916 -7.007643,6.87916 -0.07276,0 2.961616,-3.09562 6.74306,-6.87916 z m -69.188538,-14.41979 c 2.54349,-2.54662 4.68407,-4.63021 4.75683,-4.63021 0.0728,0 -1.94876,2.08359 -4.49225,4.63021 -2.5435,2.54661 -4.68407,4.6302 -4.75683,4.6302 -0.0728,0 1.94875,-2.08359 4.49225,-4.6302 z m 78.623022,1.4552 c 0,-0.3638 0.06005,-0.51263 0.133453,-0.33072 0.0734,0.1819 0.0734,0.47955 0,0.66145 -0.0734,0.1819 -0.133453,0.0331 -0.133453,-0.33073 z m -0.02088,-2.271 c 0.0127,-0.30823 0.07539,-0.37092 0.159851,-0.15985 0.07643,0.19099 0.06703,0.41919 -0.02088,0.50711 -0.08792,0.0879 -0.150453,-0.0684 -0.138964,-0.34726 z m -13.515753,-16.44827 -11.772845,-11.8401 11.840105,11.77284 c 6.512057,6.47507 11.840104,11.80311 11.840104,11.84011 0,0.18614 -0.964792,-0.76776 -11.907364,-11.77285 z"
         id="path1588" />
      <path
         style="fill:#55d400;fill-opacity:1;stroke:#55d400;stroke-width:0.264583"
         d="m -263.54838,303.1907 c -0.097,-0.097 -0.17639,-9.5964 -0.17639,-21.10974 v -20.93335 l 13.95677,-13.87332 c 7.67623,-7.63032 20.56474,-20.4267 28.64115,-28.43639 8.07641,-8.0097 23.13865,-22.95568 33.47165,-33.2133 16.58804,-16.46702 43.29024,-42.9395 56.75293,-56.26466 l 4.63187,-4.58456 20.5618,20.57034 20.561806,20.57033 -7.180934,7.27604 c -6.834386,6.9249 -20.939052,21.12487 -66.227512,66.675 -11.0684,11.13234 -29.7978,29.97398 -41.6209,41.87031 l -21.49655,21.62969 h -20.84965 c -11.46731,0 -20.92902,-0.0794 -21.02604,-0.17639 z m 169.085919,-169.09568 -21.103369,-21.1046 9.46272,-9.4183 c 5.34646,-5.321366 9.983476,-9.717467 10.659868,-10.106036 1.723774,-0.990261 4.311793,-1.593648 6.061043,-1.413109 0.876922,0.09051 2.184641,0.515172 3.31301,1.075861 1.725649,0.857478 3.00592,2.072891 17.22411,16.351564 14.401655,14.46292 15.390908,15.51563 15.857014,16.87432 1.011513,2.94855 0.417499,6.97276 -1.415992,9.59279 -0.434525,0.62092 -4.877168,5.20666 -9.872541,10.19053 l -9.082495,9.06158 z"
         id="path1590" />
    </g>
    <g
       style="fill:#55d400;stroke:#55d400"
       transform="matrix(0.07451623,0,0,0.07451623,166.56337,237.43137)"
       id="g1600">
      <path
         id="path1594"
         d="m -263.86323,282.20042 c 0,-11.71443 0.0325,-16.50669 0.0722,-10.64948 0.0397,5.85722 0.0397,15.44175 0,21.29896 -0.0397,5.85721 -0.0722,1.06495 -0.0722,-10.64948 z m 46.57284,16.93333 c 2.32492,-2.32833 4.28666,-4.23333 4.35942,-4.23333 0.0728,0 -1.76991,1.905 -4.09484,4.23333 -2.32492,2.32834 -4.28666,4.23334 -4.35942,4.23334 -0.0728,0 1.76992,-1.905 4.09484,-4.23334 z m 6.61458,-6.61458 c 1.15734,-1.16417 2.16379,-2.11667 2.23655,-2.11667 0.0728,0 -0.81463,0.9525 -1.97196,2.11667 -1.15734,1.16417 -2.16379,2.11667 -2.23655,2.11667 -0.0728,0 0.81462,-0.9525 1.97196,-2.11667 z m 26.45834,-26.72292 c 5.09167,-5.09322 9.31711,-9.26041 9.38987,-9.26041 0.0728,0 -4.03362,4.16719 -9.12529,9.26041 -5.09167,5.09323 -9.31711,9.26042 -9.38988,9.26042 -0.0728,0 4.03363,-4.16719 9.1253,-9.26042 z m 12.17083,-12.17083 c 0.56839,-0.58208 1.09297,-1.05833 1.16573,-1.05833 0.0728,0 -0.33276,0.47625 -0.90115,1.05833 -0.56839,0.58208 -1.09296,1.05833 -1.16572,1.05833 -0.0728,0 0.33275,-0.47625 0.90114,-1.05833 z m -70.24688,-14.15521 c 4.87332,-4.87494 8.92012,-8.86354 8.99288,-8.86354 0.0728,0 -3.85497,3.9886 -8.72829,8.86354 -4.87332,4.87495 -8.92011,8.86354 -8.99287,8.86354 -0.0728,0 3.85496,-3.98859 8.72828,-8.86354 z m 99.74792,-15.61041 c 6.18335,-6.18464 11.30199,-11.2448 11.37475,-11.2448 0.0728,0 -4.92681,5.06016 -11.11016,11.2448 -6.18336,6.18463 -11.30199,11.24479 -11.37475,11.24479 -0.0728,0 4.92681,-5.06016 11.11016,-11.24479 z m -68.39479,-15.47813 c 5.23723,-5.23875 9.58177,-9.525 9.65453,-9.525 0.0728,0 -4.15271,4.28625 -9.38995,9.525 -5.23723,5.23875 -9.58177,9.525 -9.65453,9.525 -0.0728,0 4.15272,-4.28625 9.38995,-9.525 z m 108.87604,-25.26771 c 7.638807,-7.63984 13.94827,-13.89062 14.02103,-13.89062 0.07276,0 -6.11764,6.25078 -13.75644,13.89062 -7.63881,7.63985 -13.94827,13.89063 -14.02103,13.89063 -0.0728,0 6.11764,-6.25078 13.75644,-13.89063 z m -74.08333,-9.26041 c 4.87332,-4.87495 8.92011,-8.86355 8.99287,-8.86355 0.0728,0 -3.85497,3.9886 -8.72829,8.86355 -4.87332,4.87494 -8.92011,8.86354 -8.99287,8.86354 -0.0728,0 3.85497,-3.9886 8.72829,-8.86354 z m 79.634854,-19.64532 -2.773396,-2.84427 2.84427,2.7734 c 1.564349,1.52537 2.844271,2.80529 2.844271,2.84427 0,0.19109 -0.339153,-0.13158 -2.915145,-2.7734 z m -47.223394,-12.50156 c 4.65496,-4.65667 8.52309,-8.46667 8.59585,-8.46667 0.0728,0 -3.67631,3.81 -8.33127,8.46667 -4.65496,4.65667 -8.5231,8.46667 -8.59586,8.46667 -0.0728,0 3.67632,-3.81 8.33128,-8.46667 z m 88.767707,-4.86239 c 0,-0.0549 0.208359,-0.2633 0.46302,-0.46303 0.419645,-0.3291 0.429004,-0.31974 0.0999,0.0999 -0.345643,0.44073 -0.562916,0.58089 -0.562916,0.36313 z m 2.137555,-4.0232 c 0.0127,-0.30822 0.07539,-0.37092 0.159851,-0.15985 0.07643,0.19099 0.06703,0.4192 -0.02088,0.50712 -0.08792,0.0879 -0.150453,-0.0684 -0.138964,-0.34727 z m 0.264583,-5.02708 c 0.0127,-0.30823 0.07539,-0.37092 0.159851,-0.15985 0.07643,0.19099 0.06703,0.41919 -0.02088,0.50711 -0.08792,0.0879 -0.150452,-0.0683 -0.138964,-0.34726 z m -0.92992,-2.67852 c -0.143584,-0.37709 -0.113194,-0.40748 0.148114,-0.14812 0.180821,0.17948 0.262114,0.39297 0.180652,0.47444 -0.08146,0.0815 -0.229407,-0.0654 -0.328766,-0.32632 z m -72.645135,-0.34214 c -0.23847,-0.15411 -0.2711,-0.2581 -0.0818,-0.26053 0.17331,-0.002 0.3887,0.11501 0.47863,0.26053 0.20302,0.32849 0.11143,0.32849 -0.39687,0 z m 19.71146,-21.16667 c 5.23723,-5.238749 9.581772,-9.524999 9.654532,-9.524999 0.07276,0 -4.152722,4.28625 -9.389952,9.524999 -5.23723,5.23875 -9.58177,9.525 -9.65453,9.525 -0.0728,0 4.15271,-4.28625 9.38995,-9.525 z m 22.601846,-9.194269 -0.641432,-0.727605 0.727605,0.641433 c 0.680055,0.599516 0.848939,0.813776 0.641432,0.813776 -0.04739,0 -0.374814,-0.327422 -0.727605,-0.727604 z m -2.09664,-1.389063 c -0.238466,-0.154109 -0.2711,-0.258097 -0.08176,-0.260532 0.173312,-0.0022 0.388699,0.115011 0.478636,0.260532 0.203015,0.328487 0.111421,0.328487 -0.396876,0 z m -6.664193,-0.974491 c 0.190995,-0.07643 0.419201,-0.06703 0.507119,0.02089 0.08792,0.08792 -0.06835,0.150453 -0.347265,0.138965 -0.308227,-0.0127 -0.37092,-0.07539 -0.159854,-0.159853 z m 1.835547,-0.270568 c 0.327422,-0.06306 0.863203,-0.06306 1.190625,0 0.327422,0.06307 0.05953,0.114663 -0.595312,0.114663 -0.654844,0 -0.922735,-0.0516 -0.595313,-0.114663 z"
         style="fill:#55d400;fill-opacity:1;stroke:#55d400;stroke-width:0.264583" />
      <path
         id="path1596"
         d="m -206.17789,287.75667 c 4.80053,-4.80219 8.78778,-8.73125 8.86054,-8.73125 0.0728,0 -3.79542,3.92906 -8.59596,8.73125 -4.80053,4.80219 -8.78777,8.73125 -8.86053,8.73125 -0.0728,0 3.79542,-3.92906 8.59595,-8.73125 z m -53.57813,-30.82396 c 2.25205,-2.25557 4.15417,-4.10104 4.22693,-4.10104 0.0728,0 -1.71029,1.84547 -3.96234,4.10104 -2.25205,2.25558 -4.15417,4.10104 -4.22693,4.10104 -0.0728,0 1.71029,-1.84546 3.96234,-4.10104 z m 82.15313,1.98438 c 0.56839,-0.58209 1.09297,-1.05834 1.16573,-1.05834 0.0728,0 -0.33276,0.47625 -0.90115,1.05834 -0.56839,0.58208 -1.09296,1.05833 -1.16572,1.05833 -0.0728,0 0.33275,-0.47625 0.90114,-1.05833 z m 9.92187,-9.92188 c 4.72775,-4.72942 8.65544,-8.59896 8.7282,-8.59896 0.0728,0 -3.73586,3.86954 -8.46361,8.59896 -4.72775,4.72943 -8.65544,8.59896 -8.7282,8.59896 -0.0728,0 3.73587,-3.86953 8.46361,-8.59896 z m -61.7802,-22.09271 c 3.63583,-3.63802 6.67014,-6.61458 6.7429,-6.61458 0.0728,0 -2.84248,2.97656 -6.47832,6.61458 -3.63584,3.63803 -6.67015,6.61459 -6.74291,6.61459 -0.0728,0 2.84249,-2.97656 6.47833,-6.61459 z m 103.98125,-20.37291 c 5.23723,-5.23875 9.58177,-9.525 9.65453,-9.525 0.0728,0 -4.15272,4.28625 -9.38995,9.525 -5.23723,5.23875 -9.58177,9.525 -9.65453,9.525 -0.0728,0 4.15271,-4.28625 9.38995,-9.525 z m -72.76042,-10.58334 c 4.65496,-4.65666 8.5231,-8.46666 8.59586,-8.46666 0.0728,0 -3.67632,3.81 -8.33128,8.46666 -4.65496,4.65667 -8.52309,8.46667 -8.59585,8.46667 -0.0728,0 3.67631,-3.81 8.33127,-8.46667 z m 108.413173,-25.26784 4.696502,-4.7608 -20.570865,-20.57214 c -11.31398,-11.31467 -20.51134,-20.57213 -20.43858,-20.57213 0.0728,0 9.38959,9.25787 20.70407,20.57305 l 20.571784,20.57305 -4.829707,4.75989 -4.829709,4.75989 z m -73.223593,-9.65716 c 3.34461,-3.34697 6.14064,-6.08541 6.2134,-6.08541 0.0728,0 -2.60421,2.73844 -5.94881,6.08541 -3.34461,3.34698 -6.14064,6.08542 -6.2134,6.08542 -0.0728,0 2.60421,-2.73844 5.94881,-6.08542 z m 68.394172,-26.92135 -21.033752,-21.10052 21.100522,21.03375 c 11.605286,11.56856 21.100521,21.0638 21.100521,21.10052 0,0.0367 -0.03005,0.0668 -0.06677,0.0668 -0.03673,0 -9.531959,-9.49523 -21.100521,-21.10052 z m 32.676666,9.72344 c 3.781444,-3.78354 6.934883,-6.87917 7.007643,-6.87917 0.07276,0 -2.961616,3.09563 -6.74306,6.87917 -3.781443,3.78354 -6.934882,6.87916 -7.007643,6.87916 -0.07276,0 2.961616,-3.09562 6.74306,-6.87916 z m -69.188538,-14.41979 c 2.54349,-2.54662 4.68407,-4.63021 4.75683,-4.63021 0.0728,0 -1.94876,2.08359 -4.49225,4.63021 -2.5435,2.54661 -4.68407,4.6302 -4.75683,4.6302 -0.0728,0 1.94875,-2.08359 4.49225,-4.6302 z m 78.623022,1.4552 c 0,-0.3638 0.06005,-0.51263 0.133453,-0.33072 0.0734,0.1819 0.0734,0.47955 0,0.66145 -0.0734,0.1819 -0.133453,0.0331 -0.133453,-0.33073 z m -0.02088,-2.271 c 0.0127,-0.30823 0.07539,-0.37092 0.159851,-0.15985 0.07643,0.19099 0.06703,0.41919 -0.02088,0.50711 -0.08792,0.0879 -0.150453,-0.0684 -0.138964,-0.34726 z m -13.515753,-16.44827 -11.772845,-11.8401 11.840105,11.77284 c 6.512057,6.47507 11.840104,11.80311 11.840104,11.84011 0,0.18614 -0.964792,-0.76776 -11.907364,-11.77285 z"
         style="fill:#55d400;fill-opacity:1;stroke:#55d400;stroke-width:0.264583" />
      <path
         id="path1598"
         d="m -263.54838,303.1907 c -0.097,-0.097 -0.17639,-9.5964 -0.17639,-21.10974 v -20.93335 l 13.95677,-13.87332 c 7.67623,-7.63032 20.56474,-20.4267 28.64115,-28.43639 8.07641,-8.0097 23.13865,-22.95568 33.47165,-33.2133 16.58804,-16.46702 43.29024,-42.9395 56.75293,-56.26466 l 4.63187,-4.58456 20.5618,20.57034 20.561806,20.57033 -7.180934,7.27604 c -6.834386,6.9249 -20.939052,21.12487 -66.227512,66.675 -11.0684,11.13234 -29.7978,29.97398 -41.6209,41.87031 l -21.49655,21.62969 h -20.84965 c -11.46731,0 -20.92902,-0.0794 -21.02604,-0.17639 z m 169.085919,-169.09568 -21.103369,-21.1046 9.46272,-9.4183 c 5.34646,-5.321366 9.983476,-9.717467 10.659868,-10.106036 1.723774,-0.990261 4.311793,-1.593648 6.061043,-1.413109 0.876922,0.09051 2.184641,0.515172 3.31301,1.075861 1.725649,0.857478 3.00592,2.072891 17.22411,16.351564 14.401655,14.46292 15.390908,15.51563 15.857014,16.87432 1.011513,2.94855 0.417499,6.97276 -1.415992,9.59279 -0.434525,0.62092 -4.877168,5.20666 -9.872541,10.19053 l -9.082495,9.06158 z"
         style="fill:#55d400;fill-opacity:1;stroke:#55d400;stroke-width:0.264583" />
    </g>
    <g
       style="fill:#008080;fill-opacity:1"
       transform="matrix(0.36197678,0,0,0.36197678,416.6434,-86.619626)"
       id="g1640">
      <path
         id="path1644"
         d="m 425.48299,530.0322 c -0.88499,-0.92691 -4.02671,-4.43081 -6.9816,-7.78644 l -5.37253,-6.10115 -1.6116,-0.16845 c -0.88638,-0.0926 -3.35932,-0.16844 -5.49541,-0.16844 -3.83298,0 -3.89222,-0.009 -4.52526,-0.68278 l -0.64143,-0.68277 v -9.87925 -9.87924 l 0.64143,-0.68277 0.64144,-0.68278 h 5.33436 5.33436 l 6.84018,-7.69027 c 3.76209,-4.22965 7.04805,-7.80152 7.30212,-7.9375 0.90176,-0.48261 2.22213,-0.28392 2.89801,0.43608 l 0.64143,0.68331 -0.0406,25.67767 c -0.0395,24.99589 -0.0542,25.69606 -0.55561,26.37034 -0.39129,0.52623 -0.7896,0.71274 -1.65764,0.7762 -1.09755,0.0802 -1.20604,0.0171 -2.75168,-1.60176 z m 18.34661,-3.6208 c -1.47984,-1.47983 -0.79176,-2.7927 2.50671,-4.78285 2.07901,-1.25438 5.16498,-4.54512 6.48581,-6.91617 1.64069,-2.94524 2.43232,-5.67793 2.59529,-8.95883 0.37845,-7.61889 -2.91199,-14.08392 -9.39114,-18.45168 -2.59767,-1.75116 -3.22178,-2.55906 -2.82904,-3.66214 0.39853,-1.11932 1.48933,-1.79917 2.56343,-1.59767 2.32528,0.43623 7.92599,5.22401 10.19577,8.7159 4.88889,7.52118 5.49437,17.07811 1.57864,24.91747 -2.0122,4.02844 -5.49603,7.8674 -9.21857,10.15827 -2.57108,1.58226 -3.3784,1.6862 -4.4869,0.5777 z m -5.16557,-8.32965 c -1.50179,-0.66477 -1.62973,-2.42277 -0.26851,-3.68955 3.31163,-3.08188 3.91167,-3.7698 4.71945,-5.41063 0.80508,-1.63535 0.86727,-1.95182 0.86727,-4.41308 0,-2.45569 -0.0636,-2.78146 -0.86197,-4.41338 -0.80491,-1.64531 -1.39635,-2.32398 -4.72475,-5.42146 -1.05887,-0.98541 -1.17746,-2.04412 -0.3472,-3.09963 0.87364,-1.11064 2.20146,-0.96728 4.11961,0.44479 2.77394,2.04205 4.94746,5.09897 5.92085,8.32728 0.7625,2.52887 0.65959,6.7499 -0.22366,9.17357 -1.00334,2.75322 -3.35915,5.84215 -5.85014,7.67071 -1.50838,1.10725 -2.28975,1.30111 -3.35095,0.83138 z"
         style="fill:#008080;fill-opacity:1;stroke-width:0.264583" />
    </g>
    <path
       id="path1646"
       d="m 592.49631,96.096493 h 104.58163"
       style="fill:none;stroke:#9b9b9b;stroke-width:2.26387;stroke-linecap:round;stroke-linejoin:round;stroke-miterlimit:4;stroke-dasharray:none;stroke-opacity:1" />
    <path
       style="fill:#008080;fill-opacity:1;stroke:#008080;stroke-width:2.26387;stroke-linecap:round;stroke-linejoin:round;stroke-miterlimit:4;stroke-dasharray:none;stroke-opacity:1"
       d="m 592.35437,96.096493 h 52.12484"
       id="path1648" />
    <circle
       r="3.5489812"
       cy="96.096497"
       cx="644.78717"
       id="path1650"
       style="fill:#008080;fill-opacity:1;stroke:#008080;stroke-width:1.18062;stroke-linecap:round;stroke-linejoin:round;stroke-miterlimit:4;stroke-dasharray:none;stroke-opacity:1" />
    <g
       style="fill:#008080;fill-opacity:1"
       transform="translate(-7.7087692,-456.53811)"
       id="g1666">
      <path
         id="path1668"
         d="m 563.58109,509.04904 c -0.38286,-0.42307 -0.43788,-1.31464 -0.43788,-7.09613 v -6.61227 l 7.26183,-6.00075 c 3.99401,-3.30041 7.39369,-6.00075 7.55484,-6.00075 0.16115,0 3.56082,2.70034 7.55483,6.00075 l 7.26184,6.00075 v 6.65824 c 0,6.11438 -0.0395,6.69401 -0.48386,7.09613 -0.41571,0.37621 -1.21682,0.43788 -5.68854,0.43788 h -5.20469 v -4.89479 -4.89479 h -3.43958 -3.43959 v 4.89479 4.89479 h -5.25065 c -4.75074,0 -5.29236,-0.0461 -5.68855,-0.48385 z m -5.58513,-14.50316 c -0.51599,-0.67577 -0.93817,-1.32848 -0.93817,-1.45046 0,-0.25508 18.67002,-15.8843 19.51481,-16.33642 0.72265,-0.38675 2.05945,-0.38239 2.79373,0.009 0.31786,0.16947 1.97691,1.48532 3.68678,2.92411 l 3.10885,2.61599 v -2.62714 c 0,-1.92412 0.0987,-2.70907 0.36897,-2.93334 0.24291,-0.2016 1.35023,-0.28046 3.24114,-0.23084 l 2.87218,0.0754 0.0713,5.59997 0.0713,5.59996 3.03751,2.5458 c 1.67063,1.40019 3.03751,2.64332 3.03751,2.76251 0,0.56188 -1.91973,2.67406 -2.43042,2.67406 -0.33841,0 -3.96339,-2.85441 -9.31228,-7.33274 -4.81699,-4.03301 -8.93871,-7.33274 -9.15938,-7.33274 -0.22067,0 -4.34239,3.29973 -9.15939,7.33274 -5.34888,4.47833 -8.97386,7.33274 -9.31227,7.33274 -0.34819,0 -0.90275,-0.45661 -1.49226,-1.22868 z"
         style="fill:#008080;fill-opacity:1;stroke-width:0.264583" />
    </g>
  </g>
</svg>
